<svg role="img" xmlns="http://www.w3.org/2000/svg" viewBox="0 0 135 35">
	<title>icebreaker crée des vêtements naturels à partir de laine mérinos. Move to Natural</title>
<path xmlns="http://www.w3.org/2000/svg" fill="#1A1919" fill-rule="evenodd" d="M51.3617467,27.8151736 C52.9716045,27.8151736 54.3273899,28.953078 54.3273899,30.7444789 C54.3273899,32.5360264 52.9716045,33.7101222 51.3617467,33.7101222 C49.7639038,33.7101222 48.4202799,32.5360264 48.4202799,30.7444789 C48.4202799,28.953078 49.7639038,27.8151736 51.3617467,27.8151736 Z M64.7175444,27.8151736 C66.3275488,27.8151736 67.5499975,28.953078 67.5499975,30.7444789 C67.5499975,30.8776691 67.5499975,31.0835352 67.5379825,31.2045639 L67.5379825,31.2045639 L63.0471722,31.2045639 C63.168201,32.0760879 63.8703434,32.6207172 64.7780588,32.6207172 C65.4075254,32.6207172 66.0248304,32.3301603 66.3153873,31.8097075 C66.6301206,31.9550592 67.0053682,32.1122793 67.3321165,32.257631 C66.8358401,33.2501837 65.782773,33.7101222 64.7175444,33.7101222 C63.1076866,33.7101222 61.8125621,32.5360264 61.8125621,30.7444789 C61.8125621,28.953078 63.1076866,27.8151736 64.7175444,27.8151736 Z M79.9703868,27.8151736 C81.5802446,27.8151736 82.93603,28.953078 82.93603,30.7444789 C82.93603,32.5360264 81.5802446,33.7101222 79.9703868,33.7101222 C78.3725439,33.7101222 77.02892,32.5360264 77.02892,30.7444789 C77.02892,28.953078 78.3725439,27.8151736 79.9703868,27.8151736 Z M98.2794242,27.8151736 C98.9572436,27.8151736 99.7924297,28.0937155 100.179839,28.735197 L100.179839,28.735197 L100.179839,27.9363489 L101.414449,27.9363489 L101.414449,33.5890935 L100.179839,33.5890935 L100.179839,32.7780838 C99.8045912,33.3953889 98.9814201,33.7101222 98.2794242,33.7101222 C96.7542572,33.7101222 95.4106332,32.5602028 95.4106332,30.7566404 C95.4106332,28.953078 96.7542572,27.8151736 98.2794242,27.8151736 Z M109.070322,27.9363489 L109.070322,31.0835352 C109.070322,32.0155736 109.566598,32.4996884 110.244564,32.4996884 C110.970736,32.4996884 111.697055,32.1002644 111.697055,30.9745214 L111.697055,30.9745214 L111.697055,27.9363489 L112.943827,27.9363489 L112.943827,33.5890935 L111.697055,33.5890935 L111.697055,32.7659223 C111.370307,33.4075504 110.60765,33.7101222 110.014521,33.7101222 C108.634559,33.7101222 107.811535,32.8265832 107.823696,31.2287403 L107.823696,31.2287403 L107.823696,27.9363489 L109.070322,27.9363489 Z M122.663634,27.8151736 C123.341454,27.8151736 124.17664,28.0937155 124.564049,28.735197 L124.564049,28.735197 L124.564049,27.9363489 L125.798659,27.9363489 L125.798659,33.5890935 L124.564049,33.5890935 L124.564049,32.7780838 C124.188801,33.3953889 123.36563,33.7101222 122.663634,33.7101222 C121.138467,33.7101222 119.794844,32.5602028 119.794844,30.7566404 C119.794844,28.953078 121.138467,27.8151736 122.663634,27.8151736 Z M129.124751,24.8616919 L129.124751,33.5890935 L127.87798,33.5890935 L127.87798,24.8616919 L129.124751,24.8616919 Z M117.823072,27.8151736 C118.222642,27.8151736 118.646243,27.9120259 118.827786,28.0330546 L118.827786,28.0330546 L118.622066,29.1831205 C118.307333,29.0257539 118.028938,28.989416 117.78688,28.989416 C116.721652,28.989416 116.273728,30.0546445 116.273728,31.5554886 L116.273728,31.5554886 L116.273728,33.5890935 L115.026957,33.5890935 L115.026957,27.9363489 L116.273728,27.9363489 L116.273728,29.2314734 C116.564285,28.2267592 117.121076,27.8151736 117.823072,27.8151736 Z M105.183629,25.7937302 L105.183629,27.9363489 L106.382048,27.9363489 L106.382048,28.9652395 L105.183629,28.9652395 L105.183629,33.5890935 L103.936858,33.5890935 L103.936858,28.9652395 L102.920128,28.9652395 L102.920128,27.9363489 L103.936858,27.9363489 L103.936858,25.7937302 L105.183629,25.7937302 Z M39.2767505,25.249101 L42.1092035,31.1924024 L44.9416565,25.249101 L46.0915759,25.249101 L47.1083051,33.5890935 L45.825342,33.5890935 L45.1111847,27.6336305 L42.6659942,32.6570551 L41.5765892,32.6570551 L39.1193838,27.6336305 L38.4052265,33.5890935 L37.1221169,33.5890935 L38.1389926,25.249101 L39.2767505,25.249101 Z M74.8489378,25.7937302 L74.8489378,27.9363489 L76.0473566,27.9363489 L76.0473566,28.9652395 L74.8489378,28.9652395 L74.8489378,33.5890935 L73.6021661,33.5890935 L73.6021661,28.9652395 L72.585437,28.9652395 L72.585437,27.9363489 L73.6021661,27.9363489 L73.6021661,25.7937302 L74.8489378,25.7937302 Z M56.4540374,27.9363489 L58.0760567,32.0034121 L59.6737531,27.9363489 L61.005362,27.9363489 L58.6448624,33.5890935 L57.494943,33.5890935 L55.1345899,27.9363489 L56.4540374,27.9363489 Z M91.5784478,27.8151736 C92.9462482,27.8151736 93.7330814,28.6988591 93.7330814,30.296702 L93.7330814,30.296702 L93.7330814,33.5890935 L92.4863097,33.5890935 L92.4863097,30.4419071 C92.4863097,29.5462067 92.0263713,29.0377688 91.3000524,29.0377688 C90.5617186,29.0377688 89.8475612,29.4371929 89.8475612,30.5509209 L89.8475612,30.5509209 L89.8475612,33.5890935 L88.6007896,33.5890935 L88.6007896,27.9363489 L89.8475612,27.9363489 L89.8475612,28.7835499 C90.1743095,28.1299069 90.9489812,27.8151736 91.5784478,27.8151736 Z M122.80884,29.0257539 C121.86464,29.0257539 121.077807,29.7035733 121.077807,30.7444789 C121.077807,31.7855311 121.86464,32.4996884 122.80884,32.4996884 C123.728717,32.4996884 124.551888,31.8582069 124.551888,30.7444789 C124.551888,29.6308975 123.656187,29.0257539 122.80884,29.0257539 Z M98.4246293,29.0257539 C97.480576,29.0257539 96.6937428,29.7035733 96.6937428,30.7444789 C96.6937428,31.7855311 97.480576,32.4996884 98.4246293,32.4996884 C99.3446528,32.4996884 100.167677,31.8582069 100.167677,30.7444789 C100.167677,29.6308975 99.2719769,29.0257539 98.4246293,29.0257539 Z M79.9703868,29.0377688 C79.0383484,29.0377688 78.2636767,29.7035733 78.2636767,30.7444789 C78.2636767,31.8097075 79.0383484,32.4996884 79.9703868,32.4996884 C80.9145867,32.4996884 81.6892584,31.8097075 81.6892584,30.7444789 C81.6892584,29.7035733 80.9145867,29.0377688 79.9703868,29.0377688 Z M51.3617467,29.0377688 C50.4297083,29.0377688 49.6550366,29.7035733 49.6550366,30.7444789 C49.6550366,31.8097075 50.4297083,32.4996884 51.3617467,32.4996884 C52.3059465,32.4996884 53.0806182,31.8097075 53.0806182,30.7444789 C53.0806182,29.7035733 52.3059465,29.0377688 51.3617467,29.0377688 Z M64.7175444,28.9045786 C63.8460204,28.9045786 63.168201,29.425178 63.0471722,30.296702 L63.0471722,30.296702 L66.3275488,30.296702 C66.20652,29.4130165 65.564892,28.9045786 64.7175444,28.9045786 Z M27.4008438,7.60484244 C31.1811598,7.60484244 34.0520021,10.2765588 34.0520021,14.4549801 C34.0520021,14.8243668 34.0235765,15.2223257 33.9951509,15.6485636 L23.4215484,15.6485636 C23.7910816,17.8087651 25.3827705,18.8605135 27.542972,18.8605135 C29.0778096,18.8605135 30.5275168,18.206724 31.2664367,16.9845683 L33.4834895,18.093168 C32.3181851,20.3102207 29.9305785,21.4469529 27.4008438,21.4469529 C23.5636766,21.4469529 20.5508527,18.6899597 20.5508527,14.4832592 C20.5508527,10.2765588 23.6205279,7.60484244 27.4008438,7.60484244 Z M39.964387,0.698 L39.964387,9.85032083 C40.8454351,8.34390887 42.6929546,7.60484244 44.5688998,7.60484244 C48.178662,7.60484244 51.1632068,10.2765588 51.1632068,14.5116849 C51.1632068,18.7183853 48.1502364,21.4469529 44.5688998,21.4469529 C42.7782315,21.4469529 40.8454351,20.6796074 39.964387,19.1731954 L39.964387,21.1628432 L37.1788216,21.1628432 L37.1788216,0.698 L39.964387,0.698 Z M71.0318443,7.60484244 C74.8121603,7.60484244 77.6830026,10.2765588 77.6830026,14.4549801 C77.6830026,14.8243668 77.654577,15.2223257 77.6261513,15.6485636 L67.0526954,15.6485636 C67.4220821,17.8087651 69.013771,18.8605135 71.1739725,18.8605135 C72.7088101,18.8605135 74.1585173,18.206724 74.8974372,16.9845683 L77.1144899,18.093168 C75.9491856,20.3102207 73.561579,21.4469529 71.0318443,21.4469529 C67.1946771,21.4469529 64.1818531,18.6899597 64.1818531,14.4832592 C64.1818531,10.2765588 67.2515283,7.60484244 71.0318443,7.60484244 Z M86.5513601,7.60484244 C88.4273053,7.60484244 90.2748249,8.34390887 91.1560195,9.85032083 L91.1560195,7.88909876 L93.9414383,7.88909876 L93.9414383,21.1628432 L91.1560195,21.1628432 L91.1560195,19.1731954 C90.2748249,20.6796074 88.3704541,21.4469529 86.5799323,21.4469529 C82.9700236,21.4469529 79.9856253,18.7183853 79.9856253,14.5116849 C79.9856253,10.2765588 82.9700236,7.60484244 86.5513601,7.60484244 Z M116.538497,7.60484244 C120.318813,7.60484244 123.189655,10.2765588 123.189655,14.4549801 C123.189655,14.8243668 123.161083,15.2223257 123.132804,15.6485636 L112.559201,15.6485636 C112.928735,17.8087651 114.52057,18.8605135 116.680625,18.8605135 C118.215463,18.8605135 119.66517,18.206724 120.40409,16.9845683 L122.621143,18.093168 C121.455838,20.3102207 119.068232,21.4469529 116.538497,21.4469529 C112.70133,21.4469529 109.688506,18.6899597 109.688506,14.4832592 C109.688506,10.2765588 112.758181,7.60484244 116.538497,7.60484244 Z M13.6718498,7.60484244 C15.8319047,7.60484244 17.6795708,8.4858905 18.8448752,9.87859994 L16.9973556,11.6125635 C16.2298636,10.7597945 15.0645592,10.2197075 13.728701,10.2197075 C11.2558176,10.2197075 9.29459551,11.9820967 9.29459551,14.5116849 C9.29459551,17.0414196 11.2558176,18.8036622 13.728701,18.8036622 C15.0645592,18.8036622 16.2298636,18.2635752 16.9973556,17.4109528 L18.8448752,19.1447698 C17.6795708,20.5374793 15.8319047,21.4186738 13.6718498,21.4186738 C9.83468252,21.4186738 6.50903012,18.7183853 6.50903012,14.5116849 C6.50903012,10.3049844 9.83468252,7.60484244 13.6718498,7.60484244 Z M60.8560542,7.60484244 C61.7655279,7.60484244 62.7035738,7.83224749 63.1299582,8.08807818 L62.6467225,10.7315154 C61.9076561,10.3902613 61.2255874,10.2765588 60.6855004,10.2765588 C58.2694682,10.2765588 57.132443,12.8062935 57.132443,16.3876301 L57.132443,21.1628432 L54.3185985,21.1628432 L54.3185985,7.88909876 L57.132443,7.88909876 L57.132443,10.8734971 C57.8146581,8.54274176 59.1505163,7.60484244 60.8560542,7.60484244 Z M100.194931,0.698 L100.194931,12.4083346 L104.543759,7.88909876 L108.323929,7.88909876 L102.724666,13.6306368 L109.631361,21.1628432 L105.993174,21.1628432 L100.194931,14.852939 L100.194931,21.1628432 L97.4093654,21.1628432 L97.4093654,0.698 L100.194931,0.698 Z M132.85393,7.60484244 C133.763404,7.60484244 134.701303,7.83224749 135.127688,8.08807818 L134.644452,10.7315154 C133.905532,10.3902613 133.223317,10.2765588 132.683377,10.2765588 C130.267344,10.2765588 129.130319,12.8062935 129.130319,16.3876301 L129.130319,21.1628432 L126.316475,21.1628432 L126.316475,7.88909876 L129.130319,7.88909876 L129.130319,10.8734971 C129.812534,8.54274176 131.148393,7.60484244 132.85393,7.60484244 Z M3.29708024,7.88909876 L3.29708024,21.1628432 L0.511661373,21.1628432 L0.511661373,7.88909876 L3.29708024,7.88909876 Z M44.2277922,10.2482797 C42.1812932,10.2482797 39.9926661,11.8115429 39.9926661,14.4832592 C39.9926661,17.1549756 42.0107395,18.8036622 44.2277922,18.8036622 C46.5301219,18.8036622 48.3492158,16.9561427 48.3492158,14.4832592 C48.3492158,11.9820967 46.5301219,10.2482797 44.2277922,10.2482797 Z M86.8924677,10.2482797 C84.6185637,10.2482797 82.7710442,11.9820967 82.7710442,14.4832592 C82.7710442,16.9561427 84.6185637,18.8036622 86.8924677,18.8036622 C89.1379461,18.8036622 91.1275938,17.1549756 91.1275938,14.4832592 C91.1275938,11.8115429 88.9389667,10.2482797 86.8924677,10.2482797 Z M27.4292695,10.1912819 C25.3827705,10.1912819 23.8479329,11.2146046 23.4499741,13.4032318 L31.2664367,13.4032318 C31.0107526,11.3283072 29.4757684,10.1912819 27.4292695,10.1912819 Z M116.566923,10.1912819 C114.52057,10.1912819 112.985586,11.2146046 112.587627,13.4032318 L120.40409,13.4032318 C120.148406,11.3283072 118.613422,10.1912819 116.566923,10.1912819 Z M71.0602699,10.1912819 C69.013771,10.1912819 67.4789334,11.2146046 67.0809745,13.4032318 L74.8974372,13.4032318 C74.641753,11.3283072 73.1067689,10.1912819 71.0602699,10.1912819 Z M1.90437081,1.26636611 C2.95611919,1.26636611 3.80874162,2.03385817 3.80874162,3.05718092 C3.80874162,4.08035714 2.95611919,4.84770267 1.90437081,4.84770267 C0.881194587,4.84770267 0,4.08035714 0,3.05718092 C0,2.03385817 0.881194587,1.26636611 1.90437081,1.26636611 Z"></path>
</svg>