<svg width="144" height="auto" xmlns="http://www.w3.org/2000/svg" viewBox="0 0 301.35 81.03"><defs><style>.b{fill:#e30613;}.c{fill:#1d1d1b;}</style></defs><g><path class="c" d="M183.18,24.35v7.29h.24c2.91-6.51,8.3-8.42,14.69-8.42v14.14c-13.91-.9-14.13,7.19-14.13,12.8v30.87h-15.83V24.35h15.03Z"></path><path class="c" d="M230.43,81.03V41.98c0-5.05-.9-8.98-5.95-8.98s-5.94,3.93-5.94,8.98v39.06h-15.82V0h15.82V30.08h.22c3.14-5.05,7.41-6.85,13.35-6.85,7.52,0,14.15,4.49,14.15,12.35v45.45h-15.83Z"></path><path class="c" d="M269.93,24.35h12.46v22.11h18.97v12.46h-18.97v22.11h-12.46v-22.11h-19.07v-12.46h19.07V24.35Z"></path></g><path class="b" d="M0,81H4.36V24.54H0v56.46Zm23.2,0h9.47V24.54h-9.47v56.46Zm28.31,0h14V24.54h-14v56.46Zm32.83,0h18.69V24.54h-18.69v56.46Zm37.52,0h24.12V24.54h-24.12v56.46Z"></path></svg>