<svg xmlns="http://www.w3.org/2000/svg" viewBox="0 0 142.129 73.725" data-sanitized-data-name="Capa 1" data-name="Capa 1" id="Capa_1">
  <defs>
    <style>
      .cls-1 {
        stroke-width: 0px;
      }
    </style>
  </defs>
  <g>
    <path d="M30.485,24.92c-6.87,0-12.46-5.59-12.46-12.46S23.615,0,30.485,0s12.46,5.59,12.46,12.46-5.59,12.46-12.46,12.46M30.485,1.74c-5.91,0-10.72,4.81-10.72,10.72s4.81,10.72,10.72,10.72,10.72-4.81,10.72-10.72S36.395,1.74,30.485,1.74" class="cls-1"/>
    <path d="M1.605,1.18c0-.47.41-.88.88-.88s.88.41.88.88v21.35h13.25c.44,0,.81.37.81.81s-.37.81-.81.81H2.485c-.47,0-.88-.41-.88-.88V1.18Z" class="cls-1"/>
    <path d="M72.495,23.27V1.31c0-.47.41-.88.88-.88h14.65c.44,0,.81.37.81.81s-.37.81-.81.81h-13.77v9.76h11.49c.44,0,.81.37.81.81s-.37.81-.81.81h-11.49v9.08h13.94c.44,0,.81.37.81.81s-.37.81-.81.81h-14.82c-.47,0-.88-.41-.88-.88" class="cls-1"/>
    <path d="M94.445,1.21c0-.47.41-.88.88-.88h.27c.37,0,.64.2.88.51l15.99,20.3V1.14c0-.47.37-.85.85-.85s.85.37.85.85v22.36c0,.41-.3.74-.71.74h-.14c-.34,0-.61-.24-.88-.58L96.135,3.01v20.43c0,.47-.37.85-.85.85s-.85-.37-.85-.85V1.21h.01Z" class="cls-1"/>
    <path d="M130.435,2.19l-9.79,21.45c-.17.41-.44.65-.85.65-.44,0-.81-.34-.81-.75,0-.13.03-.34.14-.54l10.13-21.96c.24-.51.58-.85,1.19-.85h.07c.61,0,.95.34,1.19.85l10.1,21.89c.1.2.14.37.14.54,0,.44-.37.81-.85.81-.4,0-.71-.31-.88-.68l-9.76-21.41h-.02ZM138.305,18.91h-15.78l.84-1.74h14.1" class="cls-1"/>
    <path d="M52.615,31.76c0-.47.41-.88.88-.88h.27c.37,0,.64.2.88.51l15.99,20.3v-19.99c0-.48.37-.85.85-.85s.85.37.85.85v22.36c0,.41-.31.74-.71.74h-.13c-.34,0-.61-.24-.88-.58l-16.3-20.67v20.43c0,.47-.37.85-.85.85s-.85-.37-.85-.85v-22.23.01Z" class="cls-1"/>
    <path d="M104.765,31.73c0-.47.41-.88.88-.88s.88.41.88.88v21.35h13.25c.44,0,.81.37.81.81s-.37.81-.81.81h-14.13c-.48,0-.88-.41-.88-.88v-22.09Z" class="cls-1"/>
    <path d="M49.915.43h-.88c-.48,0-.88.41-.88.88v22.09c0,.47.41.88.88.88s.88-.41.88-.88V.43Z" class="cls-1"/>
    <path d="M88.665,32.75l-9.79,21.45c-.17.41-.44.64-.85.64-.44,0-.81-.34-.81-.75,0-.14.03-.34.14-.54l10.13-21.96c.24-.51.58-.85,1.19-.85h.07c.61,0,.95.34,1.19.85l10.1,21.89c.1.2.14.37.14.54,0,.44-.37.81-.85.81-.41,0-.71-.31-.88-.68l-9.76-21.42-.02.02ZM96.535,49.46h-15.78l.84-1.74h14.1" class="cls-1"/>
    <path d="M36.645,32.75l-9.79,21.45c-.17.41-.44.64-.85.64-.44,0-.81-.34-.81-.75,0-.14.03-.34.13-.54l10.13-21.96c.24-.51.58-.85,1.19-.85h.07c.61,0,.95.34,1.19.85l10.1,21.89c.1.2.14.37.14.54,0,.44-.37.81-.85.81-.41,0-.71-.31-.88-.68l-9.76-21.42-.01.02ZM44.515,49.46h-15.78l.84-1.74h14.1" class="cls-1"/>
    <path d="M22.565,47.51c-.31,0-.58.16-.74.41-1.88,3.11-5.3,5.19-9.19,5.19-5.91,0-10.72-4.81-10.72-10.72s4.81-10.72,10.72-10.72c3.89,0,7.3,2.08,9.18,5.19h0c.15.24.42.41.74.41.48,0,.87-.39.87-.87,0-.17-.05-.32-.13-.46h0c-2.19-3.6-6.15-6.02-10.66-6.02-6.86.01-12.45,5.6-12.45,12.47s5.59,12.46,12.46,12.46c4.5,0,8.44-2.39,10.63-5.97,0-.01.01-.02.02-.03v-.01h0c.08-.13.13-.29.13-.46,0-.48-.39-.87-.87-.87" class="cls-1"/>
    <path d="M131.915,41.64c-3.67-1.28-7.15-2.5-7.15-4.98,0-.8.32-4.82,6.58-4.82,7.14,0,7.36,4.11,7.36,4.58h0c0,.44.39.79.87.79s.87-.35.87-.79h0c0-2.35-1.91-6.33-9.09-6.33-8.09,0-8.32,5.89-8.32,6.56,0,3.72,4.23,5.19,8.31,6.62,3.92,1.37,7.62,2.66,7.62,5.53s-3.26,4.33-6.49,4.33c-3.88,0-8.05-1.43-8.05-4.59h0c0-.43-.39-.79-.87-.79s-.87.36-.87.79c0,3.73,4.02,6.33,9.78,6.33,4.92,0,8.23-2.44,8.23-6.07,0-4.11-4.67-5.74-8.79-7.17" class="cls-1"/>
    <path d="M61.015,15.82c3.29-.93,5.71-3.96,5.71-7.54,0-4.33-3.52-7.84-7.84-7.84h-9.9v1.74h9.9c3.36,0,6.1,2.74,6.1,6.1s-2.74,6.1-6.1,6.1h-9.84v1.74h10.01l5.91,7.7c.2.27.44.48.78.48.47,0,.91-.33.91-.8,0-.2-.1-.41-.27-.61l-5.36-7.05-.01-.02Z" class="cls-1"/>
    <path d="M30.485,20.76c-4.6,0-8.34-3.74-8.34-8.34s3.74-8.34,8.34-8.34,8.34,3.74,8.34,8.34-3.74,8.34-8.34,8.34M30.485,5.88c-3.61,0-6.55,2.94-6.55,6.55s2.94,6.55,6.55,6.55,6.55-2.94,6.55-6.55-2.94-6.55-6.55-6.55" class="cls-1"/>
  </g>
  <g>
    <g>
      <path d="M.618,73.51v-.48l3.91-3.89c.369-.37.648-.7.828-.97.19-.28.309-.54.379-.77.07-.24.1-.47.1-.7,0-.58-.199-1.04-.598-1.38s-.977-.51-1.745-.51c-.578,0-1.087.09-1.526.26s-.808.45-1.127.81l-.479-.42c.349-.41.798-.72,1.337-.94s1.157-.33,1.845-.33c.608,0,1.137.1,1.576.3.449.2.788.48,1.027.85s.359.8.359,1.3c0,.3-.04.59-.13.88-.08.29-.229.59-.449.91s-.529.68-.928,1.09l-3.67,3.67-.229-.26h5.845v.61H.618v-.03Z" class="cls-1"/>
      <path d="M7.066,73.665H.494v-.687l.037-.037,3.91-3.891c.352-.353.633-.682.812-.95.169-.25.291-.497.363-.737.063-.217.094-.434.094-.663,0-.546-.182-.967-.555-1.286-.374-.318-.934-.479-1.665-.479-.552,0-1.05.085-1.481.251-.401.156-.754.411-1.079.777l-.082.093-.665-.583.08-.094c.353-.415.819-.743,1.384-.975.552-.226,1.189-.34,1.893-.34.626,0,1.173.104,1.627.312.472.21.826.503,1.081.896.255.396.379.843.379,1.368,0,.322-.044.623-.135.917-.082.297-.235.606-.466.944-.216.314-.524.677-.941,1.105l-3.198,3.198h5.178v.86ZM.743,73.415h6.074v-.36H1.638l-.317.317-.406-.461-.171.171v.333ZM1.022,72.805h.513l3.374-3.374c.406-.417.705-.769.913-1.071.215-.314.356-.6.431-.873.085-.273.125-.55.125-.847,0-.476-.111-.879-.339-1.231-.227-.351-.545-.613-.974-.804-.422-.192-.935-.29-1.525-.29-.672,0-1.276.108-1.799.321-.485.198-.89.472-1.206.813l.292.256c.329-.348.687-.595,1.091-.752.46-.179.988-.269,1.571-.269.791,0,1.406.182,1.826.539.426.365.642.861.642,1.477,0,.253-.034.494-.105.734-.08.265-.213.536-.395.806-.188.281-.479.623-.843.988l-3.594,3.576Z" class="cls-1"/>
    </g>
    <g>
      <path d="M11.68,73.58c-.668,0-1.297-.11-1.885-.34-.588-.23-1.037-.53-1.366-.9l.339-.52c.279.33.678.6,1.187.81.509.22,1.077.32,1.706.32.858,0,1.496-.19,1.925-.58s.648-.89.648-1.51c0-.44-.1-.82-.299-1.14s-.549-.56-1.027-.73c-.489-.17-1.147-.26-1.985-.26h-1.875l.489-4.49h4.897v.61h-4.618l.329-.32-.439,3.93-.319-.34h1.676c.938,0,1.696.11,2.254.34s.967.54,1.217.95c.249.41.379.88.379,1.43,0,.51-.12.97-.359,1.39s-.598.74-1.077.99c-.479.24-1.077.36-1.805.36h.01Z" class="cls-1"/>
      <path d="M11.679,73.705h-.01c-.684,0-1.331-.118-1.92-.349-.603-.235-1.065-.541-1.414-.934l-.063-.071.482-.741.108.128c.264.312.647.573,1.139.776.486.209,1.027.311,1.658.311.833,0,1.436-.179,1.841-.548.409-.372.607-.836.607-1.418,0-.413-.094-.774-.28-1.073-.178-.286-.503-.515-.963-.678-.481-.169-1.135-.254-1.943-.254h-2.014l.515-4.739h5.134v.859h-4.338l-.338,3.021h1.18c.965,0,1.74.117,2.301.35.599.246,1.016.573,1.276,1,.267.438.397.928.397,1.495,0,.525-.126,1.015-.375,1.451-.246.432-.615.771-1.128,1.04-.501.251-1.106.373-1.853.374h0ZM8.585,72.326c.315.329.726.591,1.255.798.562.219,1.18.33,1.835.331.7,0,1.287-.117,1.744-.347.468-.244.804-.553,1.025-.941.23-.404.342-.839.342-1.327,0-.52-.118-.967-.36-1.364-.231-.381-.61-.675-1.158-.9-.532-.219-1.274-.33-2.207-.33h-1.207l-.04.359h1.108c.836,0,1.518.09,2.025.268.516.184.883.446,1.092.781.211.34.318.745.318,1.206,0,.647-.232,1.187-.689,1.604-.454.412-1.111.612-2.009.612-.666,0-1.24-.108-1.755-.33-.463-.191-.84-.435-1.121-.723l-.198.304ZM9.185,68.605h.484l-.433-.462-.051.462ZM9.252,67.995h.379l.338-3.021h-.388l-.328,3.021ZM9.647,64.365l-.058.529.545-.529h-.487ZM10.247,64.725h4.061v-.359h-4.021l-.04.359Z" class="cls-1"/>
    </g>
    <g>
      <path d="M19.29,73.51v-8.66h-3.331v-.61h7.331v.61h-3.331v8.66s-.668,0-.668,0Z" class="cls-1"/>
      <path d="M20.083,73.635h-.918v-8.66h-3.332v-.859h7.58v.859h-3.331v8.66ZM19.415,73.385h.419v-8.66h3.331v-.359h-7.082v.359h3.332v8.66Z" class="cls-1"/>
    </g>
    <g>
      <path d="M26.212,73.51h-.678v-9.27h.678s0,9.27,0,9.27ZM32.466,69.1h-6.334v-.6h6.334v.6ZM32.386,64.24h.678v9.27h-.678s0-9.27,0-9.27Z" class="cls-1"/>
      <path d="M33.188,73.635h-.927v-4.41h-5.925v4.41h-.928v-9.52h.928v4.26h5.925v-4.26h.927v9.52ZM32.511,73.385h.429v-9.02h-.429v4.01h.08v.85h-.08v4.16ZM25.658,73.385h.429v-4.16h-.08v-.85h.08v-4.01h-.429v9.02ZM26.337,68.975h5.925v-.35h-5.925v.35Z" class="cls-1"/>
    </g>
    <g>
      <path d="M39.288,73.51l4.249-9.27h.678l4.249,9.27h-.728l-4.01-8.84h.289l-4,8.84s-.728,0-.728,0ZM40.854,70.9l.229-.57h5.536l.219.57h-5.984Z" class="cls-1"/>
      <path d="M48.659,73.635h-1.003l-1.184-2.61h-5.195l-1.181,2.61h-1.003l4.363-9.52h.838l4.364,9.52ZM47.816,73.385h.453l-4.135-9.02h-.519l-.082.18h.675l-.201.443,2.366,5.217h.331l.315.819h-.274l1.071,2.36ZM39.482,73.385h.453l1.068-2.36h-.335l.33-.819h.375l2.36-5.217-.201-.442-4.051,8.839ZM46.633,70.775h.024l-.123-.319h-.046l.145.319ZM41.39,70.775h4.968l-.145-.319h-4.679l-.145.319ZM41.039,70.775h.078l.145-.319h-.094l-.129.319ZM41.648,70.205h4.452l-2.229-4.914-2.223,4.914Z" class="cls-1"/>
    </g>
    <g>
      <path d="M50.728,73.51v-9.27h.569l6.593,8.43h-.299v-8.43h.678v9.27h-.559l-6.603-8.43h.299v8.43s-.678,0-.678,0Z" class="cls-1"/>
      <path d="M58.393,73.635h-.743l-6.119-7.812v7.812h-.927v-9.52h.754l.037.048,6.071,7.763v-7.811h.927v9.52ZM57.771,73.385h.373v-.59h-.678v-.464l-6.23-7.966h-.383v.59h.678v.464l6.24,7.966ZM50.853,73.385h.429v-7.88l-.429-.547v8.427ZM57.715,72.244l.429.548v-8.427h-.429v7.879Z" class="cls-1"/>
    </g>
    <g>
      <path d="M62.049,73.51v-9.27h.569l6.593,8.43h-.299v-8.43h.678v9.27h-.559l-6.603-8.43h.299v8.43s-.678,0-.678,0Z" class="cls-1"/>
      <path d="M69.714,73.635h-.744l-6.118-7.812v7.812h-.928v-9.52h.754l.037.048,6.071,7.763v-7.811h.927v9.52ZM69.091,73.385h.374v-.59h-.678v-.464l-6.23-7.966h-.383v.59h.678v.464l6.239,7.966ZM62.173,73.385h.429v-7.88l-.429-.548v8.428ZM69.036,72.244l.429.548v-8.427h-.429v7.879Z" class="cls-1"/>
    </g>
    <g>
      <path d="M73.379,73.51v-9.27h.678v9.27s-.678,0-.678,0Z" class="cls-1"/>
      <path d="M74.182,73.635h-.927v-9.52h.927v9.52ZM73.504,73.385h.429v-9.02h-.429v9.02Z" class="cls-1"/>
    </g>
    <g>
      <path d="M80.331,73.51l-4.119-9.27h.738l3.93,8.86h-.409l3.95-8.86h.698l-4.119,9.27h-.678.01Z" class="cls-1"/>
      <path d="M81.08,73.635h-.759v-.121l-.104.047-4.197-9.445h1.011l.033.074,3.612,8.144,3.663-8.218h.971l-4.23,9.52ZM80.412,73.385h.506l.071-.16h-.649l.071.16ZM76.404,64.365l3.906,8.789.229-.515-3.669-8.274h-.466ZM80.812,72.64l.218.493,3.896-8.768h-.426l-3.689,8.274ZM80.662,72.975h.025l-.013-.028-.013.028Z" class="cls-1"/>
    </g>
    <g>
      <path d="M87.862,72.9h5.705v.61h-6.373v-9.27h6.184v.61h-5.506v8.05h-.01ZM87.792,68.51h5.007v.6h-5.007v-.6Z" class="cls-1"/>
      <path d="M93.692,73.635h-6.623v-9.52h6.433v.859h-5.505v3.41h4.927v.85h-4.927v3.54h5.695v.86ZM87.318,73.385h6.125v-.36h-5.581v-.125h-.114v-3.665h-.08v-.85h.08v-3.66h5.505v-.359h-5.935v9.02ZM87.997,68.985h4.677v-.35h-4.677v.35Z" class="cls-1"/>
    </g>
    <g>
      <path d="M96.609,73.51v-9.27h3.311c.778,0,1.436.12,1.995.37s.977.6,1.277,1.07c.299.46.449,1.03.449,1.69s-.15,1.2-.449,1.66c-.299.46-.728.82-1.277,1.07-.559.25-1.217.38-1.995.38h-2.942l.299-.32v3.35h-.678.01ZM97.277,70.2l-.299-.32h2.942c.997,0,1.745-.22,2.264-.66s.768-1.06.768-1.85-.259-1.42-.768-1.86c-.519-.44-1.267-.65-2.264-.65h-2.942l.299-.33v5.68-.01ZM103.022,73.51l-2.404-3.36h.768l2.404,3.36h-.768Z" class="cls-1"/>
      <path d="M104.033,73.635h-1.075l-2.205-3.084c-.263.036-.54.054-.833.054h-2.518v3.03h-.803v-.125h-.115v-9.395h3.435c.806,0,1.475.124,2.045.38.583.261,1.019.626,1.332,1.117.311.479.469,1.069.469,1.758,0,.677-.154,1.241-.469,1.729-.312.48-.76.855-1.33,1.115-.096.043-.195.082-.295.118l2.362,3.303ZM103.086,73.385h.462l-2.127-2.973c-.128.036-.259.068-.394.094l2.06,2.879ZM96.734,73.385h.419v-2.78h-.419v2.78ZM96.734,69.801v.757l.354-.378-.354-.379ZM97.402,70.355h2.518c.233,0,.455-.012.666-.035l-.21-.295h1.075l.068.096c.118-.04.233-.085.345-.135.525-.239.937-.584,1.223-1.023.288-.444.429-.966.429-1.592,0-.639-.144-1.185-.429-1.622-.286-.449-.687-.784-1.223-1.024-.539-.241-1.175-.358-1.944-.358h-2.518v.369h2.518c1.038,0,1.806.223,2.345.68.539.467.811,1.125.811,1.956s-.273,1.488-.811,1.945c-.547.464-1.315.689-2.345.689h-2.518v.35ZM100.861,70.275l.005.007c.014-.002.026-.005.039-.007h-.044ZM97.402,69.755h2.518c.969,0,1.684-.206,2.184-.631.487-.412.724-.986.724-1.754,0-.755-.244-1.35-.725-1.766-.491-.417-1.206-.62-2.183-.62h-2.518v4.771ZM96.734,69.755h.419v-4.771h-.419v4.771ZM96.734,64.365v.577l.525-.577h-.525Z" class="cls-1"/>
    </g>
    <g>
      <path d="M109.126,73.58c-.688,0-1.337-.12-1.945-.35-.608-.23-1.087-.54-1.416-.91l.299-.5c.319.33.748.6,1.297.83s1.137.34,1.745.34,1.117-.08,1.516-.24c.389-.16.678-.38.868-.66.19-.27.279-.58.279-.91,0-.4-.11-.71-.319-.95s-.489-.43-.828-.57-.718-.26-1.127-.36-.818-.2-1.227-.31-.788-.25-1.137-.43c-.339-.18-.618-.42-.828-.72-.209-.31-.309-.7-.309-1.18,0-.44.11-.85.339-1.22s.588-.67,1.067-.9c.489-.23,1.107-.34,1.865-.34.509,0,1.017.08,1.516.23s.918.35,1.277.61l-.249.54c-.389-.26-.808-.46-1.247-.59-.449-.13-.878-.19-1.287-.19-.588,0-1.077.08-1.466.25s-.678.39-.858.67c-.19.28-.279.59-.279.93,0,.4.1.71.309.95s.479.43.828.57c.339.14.718.26,1.137.36.409.1.818.2,1.227.31s.778.25,1.127.43.618.41.828.71.319.69.319,1.17c0,.43-.12.84-.359,1.21-.239.38-.598.68-1.087.9-.489.23-1.117.34-1.885.34l.01-.02Z" class="cls-1"/>
      <path d="M109.117,73.725h-.202l.012-.022c-.62-.021-1.221-.141-1.789-.355-.625-.236-1.118-.554-1.466-.944l-.06-.068.43-.719.113.117c.303.312.713.575,1.255.802.524.22,1.095.331,1.698.331.593,0,1.088-.078,1.47-.231.363-.149.637-.356.811-.614.171-.245.258-.527.258-.84,0-.361-.094-.646-.288-.868-.195-.222-.458-.402-.782-.536-.327-.136-.7-.255-1.108-.354-.41-.1-.82-.2-1.23-.31-.437-.118-.817-.263-1.162-.44-.361-.191-.655-.447-.873-.76-.223-.33-.331-.738-.331-1.251,0-.472.121-.904.357-1.287.24-.386.616-.704,1.119-.945.503-.237,1.13-.353,1.919-.353.51,0,1.032.079,1.553.234.512.155.943.36,1.314.629l.084.061-.355.766-.121-.081c-.382-.255-.79-.448-1.213-.573-.422-.123-.844-.186-1.252-.186-.583,0-1.047.078-1.417.239-.377.165-.639.369-.802.623-.175.259-.26.54-.26.862,0,.369.091.653.278.868.203.231.458.407.78.536.332.137.709.256,1.121.355.427.104.828.202,1.229.31.423.114.8.258,1.152.439.367.19.654.436.873.75.227.325.342.743.342,1.241,0,.46-.128.89-.38,1.278-.252.4-.636.72-1.141.946-.5.235-1.134.351-1.935.351ZM105.92,72.303c.317.33.755.602,1.305.81.601.228,1.24.343,1.901.343h.202l-.009.017c.669-.018,1.203-.124,1.63-.325.467-.21.805-.489,1.034-.854.226-.349.34-.732.34-1.144,0-.445-.1-.815-.297-1.099-.196-.279-.452-.499-.783-.67-.336-.174-.696-.311-1.102-.42-.399-.108-.799-.205-1.197-.303-.451-.108-.84-.231-1.182-.373-.359-.144-.646-.341-.874-.604-.229-.262-.34-.6-.34-1.032,0-.369.101-.705.301-1,.188-.294.487-.529.911-.714.401-.176.898-.261,1.517-.261.431,0,.877.065,1.322.195.402.119.792.296,1.159.527l.145-.314c-.329-.224-.709-.398-1.156-.533-.497-.149-.994-.225-1.481-.225-.751,0-1.344.107-1.813.328-.459.22-.8.507-1.013.852-.212.343-.32.731-.32,1.155,0,.461.094.824.287,1.109.194.278.458.507.783.68.327.169.691.307,1.11.42.408.109.816.21,1.224.31.422.103.806.226,1.145.366.359.147.654.351.874.603.236.271.351.607.351,1.032,0,.364-.101.695-.302.981-.202.298-.512.535-.922.704-.414.166-.94.25-1.564.25-.636,0-1.239-.118-1.793-.351-.508-.213-.911-.458-1.222-.746l-.17.284Z" class="cls-1"/>
    </g>
    <g>
      <path d="M113.774,73.51l4.249-9.27h.678l4.249,9.27h-.728l-4.01-8.84h.289l-4,8.84s-.728,0-.728,0ZM115.33,70.9l.229-.57h5.536l.219.57h-5.984Z" class="cls-1"/>
      <path d="M123.146,73.635h-1.003l-.034-.073-1.15-2.537h-5.195l-1.181,2.61h-1.002l.082-.177,4.282-9.343h.838l.033.073,4.332,9.446ZM122.302,73.385h.454l-4.135-9.02h-.518l-.083.18h.676l-.202.444,2.366,5.216h.32l.316.819h-.265l1.07,2.36ZM113.969,73.385h.453l1.068-2.36h-.345l.331-.819h.385l2.36-5.216-.201-.443-4.051,8.839ZM121.119,70.775h.014l-.123-.319h-.036l.145.319ZM115.876,70.775h4.969l-.145-.319h-4.678l-.145.319ZM115.515,70.775h.088l.145-.319h-.104l-.129.319ZM116.135,70.205h4.452l-2.229-4.914-2.224,4.914Z" class="cls-1"/>
    </g>
    <g>
      <path d="M125.205,73.51v-9.27h3.311c.778,0,1.436.12,1.995.37s.977.6,1.277,1.07c.299.46.449,1.03.449,1.69s-.15,1.2-.449,1.66c-.299.46-.728.82-1.277,1.07-.559.25-1.217.38-1.995.38h-2.942l.299-.32v3.35h-.678.01ZM125.873,70.2l-.299-.32h2.942c.997,0,1.745-.22,2.264-.66s.768-1.06.768-1.85-.259-1.42-.768-1.86c-.519-.44-1.267-.65-2.264-.65h-2.942l.299-.33v5.68-.01ZM131.618,73.51l-2.404-3.36h.768l2.404,3.36h-.768Z" class="cls-1"/>
      <path d="M132.629,73.635h-1.075l-2.205-3.084c-.262.036-.539.054-.832.054h-2.519v3.03h-.803v-.125h-.115v-9.395h3.436c.805,0,1.474.124,2.045.38.582.261,1.018.627,1.331,1.117.311.479.469,1.069.469,1.758,0,.677-.154,1.241-.469,1.729-.312.479-.759.855-1.329,1.115-.096.043-.196.082-.296.118l2.362,3.303ZM131.682,73.385h.462l-2.127-2.973c-.128.036-.259.068-.394.094l2.059,2.879ZM125.329,73.385h.419v-2.78h-.419v2.78ZM125.329,69.801v.757l.354-.378-.354-.379ZM125.998,70.355h2.519c.233,0,.454-.012.666-.035l-.211-.295h1.075l.068.096c.119-.04.234-.085.346-.135.525-.239.936-.584,1.222-1.023.288-.444.429-.966.429-1.592,0-.639-.144-1.185-.429-1.622-.286-.449-.686-.784-1.222-1.024-.54-.241-1.176-.358-1.944-.358h-2.519v.369h2.519c1.039,0,1.806.223,2.344.68.539.467.811,1.125.811,1.956s-.273,1.488-.811,1.945c-.546.464-1.313.689-2.344.689h-2.519v.35ZM129.456,70.275l.005.007c.014-.002.026-.005.039-.007h-.044ZM125.998,69.755h2.519c.97,0,1.684-.206,2.183-.631.487-.412.724-.986.724-1.754,0-.755-.244-1.35-.725-1.766-.49-.417-1.204-.62-2.182-.62h-2.519v4.771ZM125.329,69.755h.419v-4.771h-.419v4.771ZM125.329,64.365v.577l.525-.577h-.525Z" class="cls-1"/>
    </g>
    <g>
      <path d="M137.333,73.51v-3.36l.16.44-3.88-6.34h.738l3.521,5.76h-.369l3.521-5.76h.698l-3.88,6.34.16-.44v3.36h-.668Z" class="cls-1"/>
      <path d="M138.126,73.635h-.918v-3.271l-3.819-6.239h1.031l.036.06,3.23,5.284,3.266-5.344h.992l-3.818,6.239v3.271ZM137.458,73.385h.419v-1.929l-.209-.343-.209.343v1.929ZM137.761,70.962l.116.32v-.511l-.116.19ZM137.458,70.772v.511l.116-.32-.116-.19ZM137.461,70.135l.206.57.206-.57h-.413ZM137.209,69.44l.185.51.147-.241-3.26-5.333h-.445l3.373,5.511v-.446ZM137.834,69.708l.123.2.169-.469v.446l3.372-5.511h-.405l-3.259,5.333Z" class="cls-1"/>
    </g>
  </g>
</svg>