<?xml version="1.0" standalone="no"?>
<!DOCTYPE svg PUBLIC "-//W3C//DTD SVG 20010904//EN"
 "http://www.w3.org/TR/2001/REC-SVG-20010904/DTD/svg10.dtd">
<svg version="1.0" xmlns="http://www.w3.org/2000/svg"
 width="1503.000000pt" height="1950.000000pt" viewBox="0 0 1503.000000 1950.000000"
 preserveAspectRatio="xMidYMid meet">

<g transform="translate(0.000000,1950.000000) scale(0.100000,-0.100000)"
fill="#000000" stroke="none">
<path d="M5050 18984 c-405 -37 -746 -106 -1101 -224 -1475 -492 -2574 -1688
-2954 -3215 -49 -198 -84 -393 -111 -615 -27 -216 -24 -634 5 -877 89 -747
341 -1451 726 -2028 172 -257 361 -480 621 -735 766 -747 1732 -1186 2798
-1271 189 -15 663 -6 836 16 456 57 846 159 1308 344 111 45 208 81 215 81 8
0 69 -25 138 -56 460 -207 894 -324 1409 -381 194 -21 695 -24 880 -5 874 90
1620 376 2300 880 833 618 1417 1488 1669 2486 209 825 183 1702 -76 2501
-181 562 -457 1061 -842 1520 -110 132 -418 437 -556 551 -541 447 -1146 753
-1842 930 -302 77 -331 79 -1053 79 -663 0 -696 -2 -915 -47 -127 -26 -424
-113 -591 -174 -71 -25 -215 -84 -321 -130 -106 -46 -195 -84 -198 -84 -4 0
-77 31 -163 69 -436 191 -848 301 -1357 362 -128 16 -246 21 -475 24 -168 1
-325 1 -350 -1z m420 -679 c293 -12 667 -57 840 -101 147 -38 320 -94 320
-103 0 -18 -55 -77 -320 -346 -322 -327 -460 -489 -637 -755 -411 -616 -655
-1293 -745 -2065 -20 -169 -17 -754 5 -925 90 -712 327 -1374 695 -1940 184
-284 356 -490 720 -863 263 -271 288 -299 277 -316 -23 -39 -545 -149 -872
-185 -165 -19 -540 -21 -713 -6 -274 25 -622 97 -872 181 -316 105 -568 230
-878 435 -453 299 -848 703 -1140 1166 -82 130 -253 469 -309 613 -131 335
-219 703 -251 1055 -15 170 -12 557 5 728 118 1149 713 2151 1650 2777 605
404 1431 679 1985 659 52 -2 160 -6 240 -9z m4315 -15 c99 -12 241 -32 315
-46 1210 -222 2226 -1001 2750 -2108 308 -650 428 -1416 335 -2131 -117 -902
-575 -1762 -1255 -2359 -154 -136 -246 -206 -425 -325 -389 -258 -811 -439
-1223 -525 -602 -125 -1431 -109 -1919 38 -122 37 -173 61 -173 84 0 29 24 56
259 297 348 357 507 547 686 815 269 405 448 801 595 1315 124 436 134 524
135 1135 0 594 -10 699 -106 1068 -133 518 -331 969 -616 1406 -225 345 -435
592 -760 893 -193 179 -238 227 -229 242 8 12 135 54 264 86 241 60 515 106
837 139 86 9 358 -4 530 -24z m-2158 -716 c295 -230 386 -311 555 -499 416
-460 736 -1056 882 -1640 185 -745 138 -1568 -134 -2302 -64 -172 -216 -482
-308 -628 -152 -240 -326 -450 -607 -731 -198 -199 -284 -274 -473 -413 l-112
-83 -83 42 c-150 78 -263 168 -491 390 -150 146 -339 353 -458 502 -392 488
-658 1143 -755 1858 -26 191 -26 691 0 865 117 791 390 1426 849 1977 194 233
481 511 688 667 90 68 217 141 246 141 7 0 98 -66 201 -146z"/>
<path d="M6115 7525 c-142 -23 -243 -60 -343 -125 -165 -107 -237 -199 -281
-361 -43 -159 -46 -222 -45 -1079 1 -827 10 -1103 39 -1229 20 -85 72 -177
145 -254 92 -98 198 -152 380 -192 115 -25 466 -32 595 -12 240 39 404 130
503 282 80 122 85 230 72 1395 -5 492 -10 965 -10 1051 l0 157 -97 98 c-141
142 -275 211 -508 259 -112 23 -337 28 -450 10z m330 -438 c22 -10 70 -42 108
-70 l67 -51 0 -1072 0 -1072 -64 -51 c-121 -97 -207 -120 -312 -84 -36 12 -71
38 -138 103 l-88 86 11 889 c12 866 20 1095 41 1175 14 51 46 88 112 128 89
53 181 60 263 19z"/>
<path d="M1500 7519 c-193 -17 -376 -108 -500 -246 -116 -131 -145 -251 -137
-583 10 -430 54 -499 537 -830 461 -316 547 -413 571 -642 14 -135 0 -318 -31
-400 -24 -66 -80 -121 -137 -137 -49 -14 -187 -14 -235 -1 -72 20 -123 83
-149 182 -6 23 -14 158 -18 298 l-6 255 -297 3 -298 2 0 -31 c0 -77 22 -385
36 -492 40 -326 160 -497 399 -573 131 -42 247 -54 500 -54 327 1 413 20 559
124 211 150 260 299 261 791 0 213 -3 260 -18 315 -36 128 -73 187 -192 306
-111 112 -208 190 -430 344 -405 282 -493 380 -503 555 -8 142 26 284 81 343
45 49 95 66 192 67 81 0 95 -3 137 -27 36 -22 53 -41 75 -85 27 -56 28 -64 31
-240 l4 -183 299 0 c284 0 299 1 299 18 0 80 -24 352 -36 416 -31 160 -96 270
-207 353 -127 94 -259 133 -517 153 -147 11 -146 11 -270 -1z"/>
<path d="M12917 7520 c-105 -10 -206 -39 -301 -86 -88 -44 -99 -52 -169 -122
-141 -138 -196 -370 -168 -707 29 -348 84 -430 467 -696 290 -200 389 -275
475 -359 139 -136 169 -217 169 -449 0 -265 -46 -378 -169 -420 -19 -6 -76
-11 -126 -11 -82 0 -99 3 -146 28 -44 23 -59 37 -81 82 -41 81 -48 130 -55
398 l-6 242 -293 0 c-161 0 -295 -3 -297 -7 -8 -14 23 -447 39 -553 51 -333
189 -493 484 -562 87 -21 120 -22 400 -23 292 0 308 1 380 23 93 29 205 97
281 173 113 109 151 242 170 582 23 391 -18 556 -180 730 -76 83 -206 186
-477 379 -412 293 -488 382 -488 572 1 256 76 371 251 383 154 11 234 -50 262
-202 6 -32 11 -121 11 -197 l0 -138 299 0 300 0 -5 53 c-2 28 -9 117 -14 198
-16 238 -57 362 -156 468 -70 76 -165 137 -257 166 -143 46 -424 71 -600 55z"/>
<path d="M3187 7453 c-10 -9 -9 -3161 1 -3166 10 -7 551 18 558 25 7 7 23 729
24 1056 l0 242 28 0 c73 0 559 42 647 56 238 38 367 107 394 211 30 113 51
439 51 785 0 442 -25 534 -193 706 l-91 92 -706 0 c-389 0 -710 -3 -713 -7z
m972 -437 c78 -17 112 -41 130 -92 19 -53 27 -440 12 -602 -14 -148 -28 -187
-74 -207 -50 -21 -184 -35 -329 -35 l-128 0 0 482 0 481 163 -7 c89 -3 191
-13 226 -20z"/>
<path d="M7890 5875 l0 -1585 275 0 275 0 0 706 0 706 223 -4 c207 -3 225 -5
264 -25 64 -34 95 -88 114 -198 5 -33 14 -244 19 -470 11 -528 24 -627 85
-685 22 -20 38 -24 113 -28 114 -5 366 14 400 30 32 16 32 12 14 243 -7 88
-17 261 -22 385 -31 690 -63 777 -330 919 -56 29 -98 57 -93 61 4 4 45 22 90
39 156 62 225 131 258 256 36 138 40 758 5 902 -24 101 -50 151 -105 202 -122
111 -289 130 -1112 131 l-473 0 0 -1585z m1022 1137 c114 -50 154 -180 137
-451 -12 -205 -36 -289 -96 -345 -51 -47 -103 -58 -304 -63 l-186 -5 -6 138
c-4 77 -10 278 -13 448 l-7 309 215 -5 c186 -5 221 -8 260 -26z"/>
<path d="M10060 7250 l0 -210 290 0 290 0 0 -1375 0 -1375 295 0 295 0 0 1375
0 1375 290 0 290 0 0 210 0 210 -875 0 -875 0 0 -210z"/>
<path d="M4034 3905 c-47 -96 -86 -187 -87 -202 -2 -24 2 -28 43 -36 73 -14
209 -3 255 21 47 24 141 118 256 257 45 55 89 108 97 118 14 16 2 17 -232 17
l-247 0 -85 -175z"/>
<path d="M7555 3440 c-218 -29 -411 -137 -464 -259 -62 -146 -74 -343 -68
-1176 3 -565 6 -670 20 -729 42 -179 192 -320 392 -371 154 -40 409 -39 559 0
147 39 298 150 350 258 47 97 51 175 51 942 -1 986 -10 1056 -160 1193 -61 56
-130 93 -220 116 -131 33 -320 44 -460 26z m282 -339 c23 -11 46 -28 52 -39
36 -68 59 -747 42 -1256 -11 -360 -23 -502 -42 -538 -18 -33 -87 -58 -164 -58
-141 0 -199 36 -215 135 -42 260 -34 1574 10 1690 28 73 215 112 317 66z"/>
<path d="M9359 3431 c-124 -27 -194 -67 -313 -180 -78 -75 -100 -112 -115
-196 -19 -98 -33 -700 -29 -1222 5 -543 5 -541 75 -682 44 -87 118 -168 183
-199 91 -43 155 -53 411 -62 136 -5 259 -12 275 -16 56 -13 103 -44 190 -125
106 -98 138 -119 184 -119 30 0 45 11 117 84 117 119 119 140 24 257 -33 39
-65 90 -72 113 -10 31 -14 272 -19 1001 -5 693 -10 972 -19 1003 -18 69 -47
117 -104 175 -96 98 -204 153 -348 176 -103 17 -341 12 -440 -8z m397 -344
c31 -36 61 -140 74 -252 17 -159 23 -589 11 -885 -18 -451 -40 -640 -78 -683
-55 -61 -175 -75 -264 -29 -134 68 -143 131 -136 1014 5 638 9 705 50 785 36
68 75 83 216 80 99 -2 104 -4 127 -30z"/>
<path d="M810 2161 l0 -1262 88 5 c48 3 202 8 342 11 302 7 478 19 577 41 119
25 255 128 302 229 56 119 71 325 71 980 0 826 -19 956 -157 1085 -144 135
-237 152 -905 166 l-318 7 0 -1262z m779 894 c80 -25 117 -66 128 -141 4 -32
8 -345 8 -694 -1 -683 -7 -783 -50 -877 -36 -79 -58 -87 -247 -91 l-158 -4 0
917 0 918 133 -6 c82 -3 152 -11 186 -22z"/>
<path d="M2647 3413 c-10 -9 -8 -330 2 -381 13 -65 29 -76 116 -80 74 -4 75
-4 75 -32 0 -15 -38 -105 -85 -200 -47 -95 -85 -181 -85 -192 0 -22 33 -37 67
-30 61 12 168 162 239 336 65 159 84 258 84 432 l0 154 -203 0 c-112 0 -207
-3 -210 -7z"/>
<path d="M3560 2165 l0 -1255 631 0 631 0 -6 43 c-3 23 -8 99 -12 169 -4 69
-10 131 -14 137 -4 8 -118 15 -366 22 -197 6 -369 12 -381 15 l-23 4 0 390 0
390 355 0 355 0 0 170 0 170 -355 0 -355 0 0 330 0 330 375 0 375 0 0 170 0
170 -605 0 -605 0 0 -1255z"/>
<path d="M5230 2166 l0 -1256 230 0 230 0 0 514 0 514 48 6 c26 3 90 8 142 11
198 12 391 36 454 56 85 26 162 98 197 186 24 57 24 61 24 453 0 337 -3 406
-17 472 -33 146 -92 224 -193 253 -88 25 -270 36 -697 42 l-418 6 0 -1257z
m777 894 c84 -24 108 -86 125 -328 19 -267 -8 -369 -110 -415 -38 -17 -73 -21
-189 -25 l-143 -5 0 398 0 398 138 -6 c75 -3 156 -11 179 -17z"/>
<path d="M10813 2423 c5 -1112 3 -1091 73 -1231 51 -105 127 -178 246 -237
133 -65 252 -89 418 -82 144 7 213 23 326 77 140 68 236 185 264 325 20 101
31 630 28 1365 l-3 755 -110 7 c-60 3 -158 9 -217 13 l-108 6 0 -473 c-1 -568
-16 -1333 -30 -1477 -16 -170 -50 -213 -173 -219 -88 -5 -148 10 -188 46 -25
23 -31 37 -39 107 -18 142 -30 685 -30 1358 l0 657 -231 0 -230 0 4 -997z"/>
<path d="M12730 2166 l0 -1256 605 0 605 0 0 190 0 190 -400 0 -399 0 5 118
c3 64 9 235 14 380 4 145 10 265 12 267 1 1 154 8 338 15 184 7 338 14 343 17
4 2 7 75 7 163 l0 158 -77 6 c-43 3 -172 8 -288 11 -115 3 -236 8 -267 11
l-58 6 0 307 0 308 198 7 c108 3 282 9 385 13 l189 6 -7 96 c-4 53 -10 123
-13 156 l-7 60 -295 6 c-162 4 -429 10 -592 14 l-298 7 0 -1256z"/>
</g>
</svg>
