<svg version="1.1" id="Calque_1" xmlns="http://www.w3.org/2000/svg" xmlns:xlink="http://www.w3.org/1999/xlink" x="0px" y="0px" viewBox="0 0 500 108.5" style="enable-background:new 0 0 500 108.5;" xml:space="preserve" class=" drawsvg-initialized">
<path d="M109.8,50.3L109.8,50.3c-0.1,0.3-0.2,0.6-0.2,1c-0.1,0.4-0.2,0.8-0.3,1.3c-0.1,0.5-0.2,1-0.4,1.6c-0.2,0.6-0.4,1.2-0.6,2
	c-0.3,0.7-0.6,1.5-1,2.3c-0.4,0.8-0.9,1.6-1.5,2.5c-0.6,0.9-1.3,1.8-2.1,2.7c-0.8,0.9-1.6,1.8-2.5,2.6c-0.9,0.8-1.8,1.5-2.7,2.1
	c-1,0.6-2,1-3,1.1c-0.5,0.1-1,0.1-1.5,0.1c-0.5,0-1.1-0.1-1.7-0.2C91.1,69.1,90,68.6,89,68c-1-0.6-1.9-1.5-2.8-2.5
	c-0.9-1-1.6-2.2-2.2-3.5c-0.6-1.3-1.2-2.7-1.6-4.3c-0.5-1.6-0.9-3.2-1.3-4.9c-0.2-0.8-0.3-1.7-0.5-2.8l0,0l0,0c0-0.1,0-0.1,0-0.2
	l0-0.1c-1,0.5-2,1-3.1,1.4c-1.1,0.4-2.4,0.9-3.8,1.3c-1.4,0.4-2.8,0.8-4.3,1.1c-1.5,0.3-3.2,0.6-4.9,0.9c-1.8,0.3-3.6,0.6-5.5,0.8
	c-1.9,0.2-3.9,0.4-5.9,0.6c-2,0.2-4,0.3-5.9,0.4c-1.9,0.1-3.8,0.2-5.6,0.2c-1.8,0.1-3.6,0.1-5.2,0.1c-1.6,0-3.2,0-4.8,0
	c-1.5,0-3.1-0.1-4.6-0.1c-1.4,0-2.9-0.1-4.2-0.1c-1.3,0-2.6,0-3.8,0.1c-1.2,0-2.4,0.1-3.5,0.2c-1.1,0.1-2.1,0.2-2.9,0.4
	c-0.8,0.1-1.6,0.3-2.2,0.4c-0.6,0.2-1.2,0.3-1.8,0.5c-0.5,0.2-1.1,0.4-1.8,0.7c-0.7,0.3-1.3,0.7-1.8,1c-0.5,0.3-1,0.7-1.4,1.1
	c-0.4,0.4-0.8,0.8-1,1.2c-0.2,0.4-0.4,0.8-0.6,1C2,63,1.9,63.1,2,63.3l0,0.2l-0.1,0.1c-0.2,0.2-0.4,0.4-0.6,0.4c-0.1,0-0.1,0-0.2,0
	c-0.3-0.1-0.6-0.3-0.8-0.9l0-0.1l0,0c0-0.3,0.1-0.6,0.3-1c0.2-0.3,0.4-0.7,0.7-1.2c0.3-0.5,0.7-1,1.3-1.5c0.6-0.5,1.1-0.9,1.7-1.3
	c0.6-0.3,1.2-0.7,1.9-1c0.7-0.3,1.4-0.6,1.9-0.8c0.6-0.2,1.2-0.4,1.9-0.6c0.7-0.2,1.5-0.3,2.4-0.4c0.9-0.1,1.9-0.2,3-0.3
	c1.1-0.1,2.3-0.1,3.6-0.2c1.2,0,2.6,0,3.9,0c1.3,0,2.7,0,4.2,0.1c1.4,0,3,0.1,4.6,0.1c1.6,0,3.2,0.1,4.8,0.1c1.6,0,3.3,0,5.1-0.1
	c1.8,0,3.7-0.1,5.6-0.2c1.9-0.1,3.9-0.2,5.9-0.4c2-0.2,4-0.4,5.8-0.6c1.9-0.2,3.7-0.5,5.4-0.8c1.7-0.3,3.4-0.6,4.8-1
	c1.5-0.3,2.9-0.7,4.2-1.1c1.3-0.4,2.6-0.8,3.6-1.3c1.1-0.5,2.1-0.9,3.1-1.4c0.1-0.1,0.2-0.1,0.3-0.2c0,0,0,0,0-0.1l0-0.1l0,0
	c0-0.1,0-0.2,0-0.3c0-0.1,0-0.3,0-0.4c-0.2-1.9-0.3-3.8-0.3-5.6c0-1.8,0.1-3.8,0.3-5.8c0.2-2,0.5-3.9,0.8-5.7
	c0.3-1.7,0.7-3.6,1.1-5.5c0.4-1.9,0.9-3.7,1.3-5.2c0.4-1.5,0.9-3.1,1.5-4.7c0.6-1.6,1.1-3,1.7-4.2c0.6-1.2,1.1-2.4,1.8-3.5
	c0.6-1.1,1.2-2.1,1.8-2.9c0.6-0.8,1.2-1.5,1.8-2.2c0.6-0.7,1.2-1.2,1.9-1.5c0.6-0.4,1.3-0.6,1.9-0.6c0.6,0,1.2,0.1,1.8,0.3
	c0.5,0.3,1,0.7,1.5,1.2c0.4,0.6,0.8,1.4,1.1,2.6c0.3,1.1,0.4,2.4,0.5,3.6c0.1,1.3,0,2.7-0.1,4.2c-0.1,1.5-0.3,2.9-0.6,4.2
	c-0.3,1.3-0.7,2.6-1.1,4c-0.4,1.4-0.9,2.8-1.4,4.2c-0.5,1.4-1.1,2.8-1.7,4.1c-0.6,1.3-1.2,2.7-1.9,3.9c-0.7,1.3-1.4,2.5-2.1,3.7
	c-0.7,1.2-1.4,2.3-2.1,3.4c-0.7,1-1.4,2.1-2,3c-0.7,0.9-1.3,1.8-1.9,2.6c-0.6,0.8-1.3,1.5-2,2.3c-0.7,0.7-1.2,1.3-1.6,1.6
	c-0.1,0.1-0.3,0.2-0.4,0.3c0.2,1.4,0.4,2.5,0.6,3.4c0.3,1.6,0.8,3.2,1.3,4.8c0.5,1.5,1,2.9,1.6,4.1c0.6,1.2,1.3,2.3,2.1,3.3
	c0.8,0.9,1.6,1.7,2.5,2.2c0.9,0.5,1.8,0.9,2.8,1.2c1,0.2,1.9,0.3,2.7,0.1c0.8-0.1,1.6-0.5,2.5-1c0.9-0.5,1.7-1.1,2.5-1.9
	c0.8-0.7,1.6-1.6,2.4-2.5c0.8-0.9,1.4-1.8,2-2.6c0.5-0.8,1-1.6,1.4-2.4c0.4-0.7,0.7-1.5,0.9-2.1c0.2-0.7,0.4-1.3,0.5-1.8
	c0.1-0.6,0.2-1.1,0.3-1.6c0.1-0.5,0.2-0.9,0.2-1.3c0-0.4,0.1-0.7,0.1-0.9l0-0.1l0,0c0.3-0.2,0.7-0.4,0.9-0.3
	C109.2,49.7,109.5,49.9,109.8,50.3L109.8,50.3z M81.1,41.7c0,1.8,0.1,3.9,0.3,5.7c0.3-0.3,0.8-0.8,1.3-1.2c0.7-0.7,1.3-1.4,1.9-2.1
	c0.6-0.7,1.1-1.7,1.8-2.6c0.7-0.9,1.4-1.9,2.1-2.9c0.7-1,1.4-2.1,2.1-3.3c0.7-1.2,1.4-2.4,2.1-3.6c0.7-1.3,1.3-2.6,1.9-3.9
	c0.6-1.3,1.1-2.7,1.7-4c0.5-1.4,1-2.8,1.4-4.1c0.4-1.4,0.8-2.7,1.1-3.9c0.3-1.2,0.5-2.6,0.6-4c0.1-1.4,0.2-2.8,0.1-4
	c-0.1-1.2-0.2-2.4-0.5-3.4c-0.2-1-0.5-1.7-0.9-2c-0.3-0.3-0.7-0.5-1-0.7c-0.3-0.1-0.6-0.2-0.8-0.2c-0.1,0-0.2,0-0.2,0
	c-0.4,0-0.8,0.2-1.2,0.4c-0.5,0.2-1,0.6-1.6,1.2c-0.6,0.6-1.1,1.2-1.7,2c-0.6,0.7-1.1,1.7-1.8,2.7c-0.6,1.1-1.2,2.2-1.8,3.4
	c-0.5,1.2-1.1,2.6-1.7,4.1c-0.6,1.6-1.1,3.1-1.5,4.6c-0.4,1.5-0.9,3.2-1.3,5.1c-0.4,1.9-0.8,3.7-1.1,5.4c-0.3,1.7-0.6,3.6-0.8,5.6
	C81.2,38,81.1,39.9,81.1,41.7z" style="stroke-dasharray: 485.623, 485.623; stroke-dashoffset: 0.234814px;"></path>
<path d="M131.3,51.7c-0.5,0.3-0.9,0.6-1.4,0.8c-0.5,0.2-1.1,0.4-1.7,0.6c-0.7,0.2-1.4,0.4-2.3,0.6c-0.9,0.2-1.9,0.4-2.9,0.5
	s-2.2,0.2-3.4,0.2c-0.7,0-1.4,0-2.1-0.1c-0.1,0.6-0.2,1.2-0.4,1.8c-0.2,0.7-0.5,1.4-0.9,2.1c-0.4,0.7-0.8,1.3-1.3,1.8
	c-0.5,0.5-1,1-1.5,1.3c-0.5,0.3-1.1,0.5-1.6,0.6c-0.6,0.1-1.1-0.1-1.6-0.4c-0.5-0.3-0.8-0.7-1.1-1.2c-0.3-0.5-0.5-1.1-0.6-1.7
	c-0.1-0.6-0.2-1.3-0.2-2c0-0.7,0-1.3,0-1.9c0-0.6,0.1-1.2,0.2-1.7c0.1-0.4,0.2-0.7,0.3-1.1c-0.9-0.5-1.7-1.1-2.4-1.7
	c-0.7-0.7-1.2-1.4-1.4-2.1c-0.3-0.7-0.5-1.5-0.6-2.3s-0.1-1.6,0.1-2.3c0.2-0.7,0.5-1.3,0.9-1.8c0.4-0.4,0.9-0.7,1.5-0.9
	c0.6-0.2,1.3-0.1,2,0.1c0.7,0.2,1.5,0.6,2.3,1.1c0.8,0.5,1.5,1,2.3,1.7c0.7,0.6,1.4,1.3,1.8,1.9c0.5,0.6,0.8,1.3,1.1,1.9
	c0.3,0.7,0.6,1.3,0.7,2c0.2,0.7,0.3,1.4,0.4,2.2c0,0.5,0,1,0,1.5c0.6,0,1.3,0.1,1.9,0c1.1,0,2.2-0.1,3.3-0.2c1-0.1,2-0.3,2.8-0.5
	c0.8-0.2,1.6-0.4,2.2-0.7c0.6-0.2,1.1-0.5,1.5-0.7c0.4-0.2,0.8-0.5,1.2-0.7C131.4,50.4,131.7,50.8,131.3,51.7z M116.1,53.1
	c0-0.4,0-0.8,0-1.2c-0.1-0.7-0.2-1.3-0.3-1.9c-0.2-0.6-0.4-1.2-0.7-1.8c-0.3-0.6-0.6-1.1-1-1.7c-0.4-0.5-0.9-1.1-1.6-1.7
	c-0.7-0.6-1.3-1.1-2-1.5c-0.7-0.4-1.3-0.7-1.9-0.9c-0.6-0.2-1-0.2-1.3-0.1c-0.3,0.1-0.5,0.3-0.8,0.6c-0.2,0.2-0.4,0.6-0.6,1.1
	c-0.2,0.5-0.2,1.1-0.1,1.7c0.1,0.7,0.2,1.3,0.5,1.9c0.2,0.6,0.6,1.2,1.1,1.8c0.5,0.5,1.1,1,1.8,1.4c0.1-0.3,0.3-0.6,0.4-0.9
	c0.2-0.4,0.5-0.7,0.9-0.8c0.4-0.2,0.5-0.2,0.5,0c0.6,0.7,0.7,0.9,0.3,0.7c0,0,0,0,0,0.1c0.1,0.3,0,0.6-0.2,0.9
	c-0.1,0.2-0.3,0.5-0.4,0.8c0.6,0.3,1.2,0.5,1.8,0.7C113.7,52.6,114.8,52.9,116.1,53.1C116,53.1,116,53.1,116.1,53.1z M115.9,54.3
	C115.9,54.2,115.9,54.2,115.9,54.3c-1.3-0.2-2.6-0.4-3.8-0.9c-0.7-0.2-1.3-0.5-1.9-0.7c-0.1,0.3-0.1,0.5-0.2,0.7
	c-0.1,0.5-0.1,1-0.2,1.5c0,0.5-0.1,1.1-0.1,1.7c0,0.6,0,1.2,0.2,1.7c0.1,0.5,0.3,0.9,0.4,1.2c0.2,0.3,0.4,0.5,0.6,0.6
	c0.2,0.1,0.4,0.2,0.6,0.1c0.2,0,0.5-0.2,0.9-0.4c0.4-0.2,0.8-0.5,1.2-1c0.4-0.4,0.8-0.9,1.1-1.5c0.3-0.6,0.6-1.2,0.8-1.8
	C115.7,55.3,115.8,54.8,115.9,54.3z" style="stroke-dasharray: 143.55, 143.55; stroke-dashoffset: 0.0354166px;"></path>
<path d="M159.9,50.6L159.9,50.6c-0.1,0.3-0.1,0.7-0.2,1c-0.1,0.4-0.2,0.8-0.2,1.3c-0.1,0.5-0.2,1.1-0.3,1.6c-0.1,0.6-0.3,1.3-0.5,2
	c-0.2,0.7-0.5,1.5-0.9,2.3c-0.4,0.8-0.8,1.7-1.4,2.6c-0.6,0.9-1.2,1.8-2,2.8c-0.8,1-1.5,1.9-2.4,2.7c-0.8,0.8-1.7,1.6-2.6,2.2
	c-0.9,0.6-1.9,1-2.9,1.3c-0.5,0.1-1,0.2-1.5,0.2c-0.5,0-1.1-0.1-1.7-0.2c-1.1-0.2-2.2-0.6-3.3-1.2c-1-0.6-2-1.4-2.9-2.4
	c-0.9-1-1.7-2.2-2.4-3.4c-0.7-1.3-1.3-2.7-1.8-4.2c-0.6-1.5-1.1-3.2-1.5-4.8c-0.2-0.8-0.4-1.7-0.6-2.8l0,0l0,0c0-0.1,0-0.1,0-0.2
	l-0.1-0.2c-0.1-0.4-0.3-0.9-0.3-1.4l0-0.1l0,0c0-0.1,0-0.2,0-0.3c0-0.1,0-0.3-0.1-0.4c-0.3-1.9-0.5-3.8-0.5-5.6s-0.1-3.8,0-5.8
	c0.1-2,0.3-4,0.5-5.7c0.2-1.7,0.5-3.6,0.9-5.6c0.3-1.9,0.7-3.7,1-5.2c0.4-1.6,0.8-3.2,1.3-4.8c0.5-1.6,1-3.1,1.5-4.3
	c0.5-1.2,1-2.4,1.6-3.6c0.6-1.2,1.1-2.2,1.7-3c0.5-0.8,1.1-1.6,1.7-2.3c0.6-0.7,1.2-1.2,1.8-1.6c0.6-0.4,1.2-0.6,1.9-0.7
	c0.6-0.1,1.3,0,1.8,0.2c0.5,0.2,1.1,0.6,1.5,1.2c0.5,0.5,0.9,1.4,1.2,2.5c0.3,1.1,0.5,2.3,0.7,3.6c0.1,1.3,0.2,2.7,0.1,4.2
	c0,1.5-0.2,2.9-0.4,4.2c-0.3,1.3-0.6,2.6-0.9,4.1c-0.4,1.4-0.8,2.9-1.2,4.3c-0.4,1.4-0.9,2.8-1.5,4.2c-0.5,1.4-1.1,2.7-1.7,4
	c-0.6,1.3-1.2,2.6-1.9,3.8c-0.7,1.2-1.3,2.4-1.9,3.5c-0.6,1.1-1.3,2.1-1.9,3.1c-0.6,1-1.2,1.9-1.8,2.7c-0.6,0.8-1.2,1.6-1.9,2.4
	c-0.7,0.8-1.2,1.3-1.5,1.6c-0.1,0.1-0.2,0.2-0.4,0.4c0.2,1.4,0.5,2.4,0.7,3.4c0.4,1.6,0.9,3.2,1.5,4.7c0.6,1.5,1.2,2.9,1.8,4
	c0.6,1.2,1.4,2.2,2.2,3.2c0.8,0.9,1.7,1.6,2.6,2.1c0.9,0.5,1.9,0.8,2.9,1c1,0.2,1.9,0.2,2.7,0c0.8-0.2,1.6-0.6,2.5-1.1
	c0.8-0.5,1.7-1.2,2.4-2c0.8-0.8,1.5-1.6,2.3-2.6c0.7-0.9,1.4-1.8,1.9-2.7c0.5-0.8,0.9-1.7,1.2-2.4c0.3-0.8,0.6-1.5,0.8-2.2
	c0.2-0.7,0.3-1.3,0.4-1.9c0.1-0.6,0.2-1.1,0.2-1.6c0.1-0.5,0.1-0.9,0.1-1.3c0-0.4,0-0.7,0.1-0.9l0-0.1l0,0c0.3-0.3,0.6-0.4,0.9-0.4
	C159.4,50.1,159.6,50.3,159.9,50.6L159.9,50.6z M138.2,39.9c0.6-1.1,1.3-2.2,1.9-3.4c0.7-1.2,1.3-2.5,1.9-3.7c0.6-1.3,1.2-2.6,1.7-4
	c0.5-1.3,1-2.7,1.5-4.1c0.4-1.4,0.8-2.8,1.2-4.2c0.3-1.4,0.6-2.7,0.9-4c0.2-1.2,0.4-2.6,0.4-4c0.1-1.5,0-2.8-0.1-4
	c-0.1-1.2-0.4-2.3-0.7-3.3c-0.3-1-0.6-1.6-0.9-1.9c-0.3-0.3-0.7-0.5-1.1-0.7c-0.3-0.1-0.6-0.2-0.9-0.2c-0.1,0-0.2,0-0.2,0
	c-0.4,0-0.8,0.2-1.2,0.5c-0.4,0.3-1,0.7-1.5,1.3c-0.5,0.6-1.1,1.3-1.6,2c-0.5,0.8-1.1,1.7-1.6,2.8c-0.6,1.1-1.1,2.3-1.6,3.5
	c-0.5,1.2-1,2.6-1.5,4.2c-0.5,1.6-0.9,3.2-1.3,4.7c-0.3,1.5-0.7,3.3-1.1,5.2c-0.4,1.9-0.6,3.8-0.9,5.5c-0.2,1.7-0.4,3.6-0.5,5.6
	c-0.1,2-0.1,3.9,0,5.7c0.1,1.8,0.3,3.6,0.5,5.4c0.3-0.3,0.6-0.6,1.1-1.1c0.7-0.7,1.3-1.4,1.9-2.2c0.6-0.8,1.2-1.6,1.8-2.6
	C136.9,42,137.5,41,138.2,39.9z" style="stroke-dasharray: 318.089, 318.089; stroke-dashoffset: 0.0282539px;"></path>
<path d="M199,50.8c-0.1,0.4-0.1,0.9-0.3,1.4c-0.1,0.6-0.4,1.3-0.6,2c-0.3,0.7-0.6,1.5-1.1,2.3c-0.4,0.8-1,1.7-1.7,2.6
	c-0.7,0.9-1.4,1.8-2.2,2.7c-0.8,0.9-1.6,1.7-2.5,2.4c-0.9,0.8-1.9,1.4-2.8,1.9c-1,0.5-2,0.9-3.1,1.1c-1.1,0.3-2.1,0.4-3.2,0.3
	c-1.1-0.1-2.1-0.3-3.1-0.7c-1-0.4-1.9-0.9-2.7-1.6c-0.8-0.6-1.6-1.4-2.3-2.2c-0.7-0.8-1.2-1.7-1.7-2.5c-0.5-0.9-0.9-1.8-1.2-2.7
	c-0.3-0.9-0.6-1.8-0.7-2.7c-0.1-0.4-0.2-0.9-0.2-1.3c0,0.1-0.1,0.1-0.1,0.2c-0.3,0.5-0.8,1-1.3,1.6c-0.5,0.6-1.1,1.2-1.7,1.7
	c-0.6,0.5-1.2,1-1.9,1.4c-0.6,0.4-1.3,0.7-1.8,0.8c-0.6,0.1-1.1,0.1-1.7,0c-0.5-0.1-1-0.3-1.5-0.6c-0.5-0.3-0.8-0.7-1.1-1.2
	c-0.3-0.5-0.5-1-0.6-1.6c-0.1-0.6-0.1-1.2-0.1-1.8c0.1-0.6,0.2-1.3,0.4-1.9c0.2-0.6,0.5-1.3,0.8-1.9c0.3-0.6,0.7-1.1,1.2-1.6
	c0.4-0.5,0.9-0.9,1.4-1.3c0.5-0.4,1-0.7,1.6-1c0.6-0.3,1.1-0.5,1.7-0.7c0.5-0.2,1.1-0.3,1.6-0.4c0.5-0.1,1-0.1,1.4-0.1
	c0.4,0,0.8,0,1.1,0.1c0.3,0.1,0.6,0.2,0.9,0.3c0.2,0.1,0.5,0.3,0.7,0.6c0.2,0.2,0.4,0.5,0.4,0.7c0.1,0.3,0.1,0.5,0.1,0.6
	c0,0,0,0,0,0c0.2,0.1,0.3,0.2,0.4,0.4c0.1,0.3,0.2,0.6,0.1,0.9c-0.1,0.3-0.2,0.6-0.3,1c-0.1,0.3-0.2,0.7-0.3,1c0,0.5,0,1,0,1.6
	c0,0.7,0.1,1.4,0.2,2.2c0.1,0.8,0.3,1.6,0.6,2.5c0.3,0.9,0.6,1.7,1.1,2.5c0.4,0.8,1,1.6,1.6,2.3c0.6,0.7,1.3,1.4,2,2
	c0.8,0.6,1.6,1.1,2.4,1.4c0.9,0.4,1.7,0.6,2.7,0.6c0.9,0.1,1.9,0,2.8-0.2c1-0.2,1.9-0.6,2.8-1c0.9-0.4,1.8-1,2.6-1.7
	c0.9-0.7,1.7-1.5,2.4-2.3c0.7-0.8,1.4-1.7,2.1-2.6c0.6-0.9,1.2-1.7,1.5-2.5c0.4-0.8,0.7-1.5,0.9-2.1c0.2-0.7,0.4-1.3,0.5-1.9
	c0-0.1,0-0.2,0-0.2c0.1-0.2,0.1-0.4,0.2-0.6c0.2-0.3,0.5-0.6,0.9-0.5C198.8,50.5,198.9,50.7,199,50.8z M169.5,48
	C169.5,48,169.5,48,169.5,48c-0.1-0.1-0.2-0.2-0.3-0.2c-0.1,0-0.2-0.1-0.3-0.1c-0.1-0.1-0.3-0.1-0.5-0.2c-0.2-0.1-0.4-0.1-0.7-0.1
	c-0.3,0-0.6,0-1,0c-0.4,0-0.8,0.1-1.3,0.3c-0.5,0.1-1,0.3-1.4,0.5s-0.9,0.5-1.4,0.8c-0.4,0.3-0.8,0.7-1.2,1.1
	c-0.4,0.4-0.7,0.9-1,1.4c-0.3,0.5-0.5,1-0.7,1.5s-0.3,1.1-0.3,1.6c0,0.5,0,1,0.1,1.4s0.2,0.8,0.4,1.1c0.2,0.3,0.4,0.5,0.6,0.6
	c0.2,0.2,0.5,0.3,0.9,0.3c0.3,0.1,0.7,0.1,1,0s0.8-0.2,1.4-0.5c0.6-0.3,1.1-0.7,1.7-1.2c0.5-0.5,1.1-1,1.6-1.5
	c0.5-0.5,0.9-1,1.1-1.5c0.2-0.4,0.5-0.9,0.7-1.3c0.2-0.4,0.4-0.9,0.5-1.2c0,0,0,0,0,0c0-0.5,0-0.9,0.1-1.3
	C169.5,48.9,169.5,48.4,169.5,48C169.5,48.1,169.5,48,169.5,48z" style="stroke-dasharray: 164.596, 164.596; stroke-dashoffset: 0.00162449px;"></path>
<path d="M244.8,51.8c-0.2,0.3-0.6,0.6-1,0.9c-0.4,0.4-0.9,0.8-1.4,1.2c-0.6,0.4-1.2,1-2,1.5c-0.8,0.6-1.6,1.1-2.4,1.7
	c-0.9,0.5-1.8,1.1-2.8,1.6s-2,1-3,1.3c-1,0.4-2.1,0.7-3.4,0.9c-1.2,0.2-2.5,0.3-3.7,0.3c-1.2,0-2.3-0.2-3.4-0.4
	c-1.1-0.2-2-0.6-2.7-1c-0.7-0.4-1.2-0.9-1.7-1.5c-0.4-0.6-0.7-1.1-0.9-1.7c-0.2-0.6-0.3-1.1-0.3-1.7c0-0.5,0-1.1,0.1-1.5
	c0.1-0.5,0.2-0.9,0.4-1.4c0.2-0.5,0.4-0.9,0.7-1.4c0.3-0.5,0.7-1,1.2-1.6c0.5-0.6,1-1.1,1.6-1.6c0.6-0.5,1.1-0.9,1.6-1.3
	s1.1-0.7,1.5-0.8c0.5-0.1,0.9-0.2,1.3-0.2c0.4,0,0.8,0.1,1.2,0.3c0.4,0.2,0.7,0.5,0.9,0.9c0.2,0.4,0.3,0.8,0.3,1.2
	c0,0.4-0.1,0.7-0.2,1.1c-0.1,0.4-0.3,0.7-0.5,1c-0.2,0.3-0.5,0.6-0.7,0.9s-0.6,0.6-0.9,1c-0.3,0.3-0.7,0.7-1.2,1
	c-0.4,0.4-1,0.7-1.6,1.1c-0.6,0.4-1.2,0.7-1.8,0.9c-0.6,0.3-1.2,0.5-1.8,0.6c-0.1,0-0.2,0.1-0.3,0.1c0,0.3,0.1,0.6,0.1,0.9
	c0.1,0.4,0.3,0.8,0.6,1.2c0.3,0.4,0.7,0.8,1.2,1.2c0.5,0.3,1.2,0.7,2.2,0.9c1,0.3,2,0.4,3.1,0.5c1.1,0,2.2,0,3.4-0.3
	c1.2-0.2,2.2-0.5,3.2-0.8s1.9-0.8,2.8-1.3c1-0.5,1.9-1,2.7-1.5c0.8-0.5,1.6-1.1,2.3-1.6c0.7-0.6,1.4-1.1,1.8-1.5
	c0.5-0.5,0.9-0.9,1.2-1.2c0.3-0.4,0.6-0.7,0.7-0.9C244.3,50.6,244.7,51,244.8,51.8z M218.1,53.5c0.5-0.1,0.9-0.2,1.4-0.4
	c0.5-0.2,1-0.5,1.6-0.8c0.5-0.3,1-0.6,1.4-1c0.4-0.3,0.7-0.7,1-1c0.3-0.3,0.6-0.6,0.8-0.9c0.2-0.3,0.4-0.6,0.5-0.8
	c0.1-0.2,0.2-0.4,0.3-0.6c0.1-0.2,0.1-0.4,0.1-0.5c0-0.1,0-0.2,0-0.3c0-0.1-0.1-0.1-0.2-0.2c-0.1,0-0.2,0-0.5-0.1s-0.5,0-0.7,0
	c-0.2,0-0.6,0.2-1.1,0.5c-0.5,0.3-1,0.6-1.5,1c-0.5,0.4-1,0.9-1.4,1.4c-0.5,0.5-0.8,1-0.9,1.3c-0.2,0.4-0.3,0.8-0.5,1.2
	C218.2,52.9,218.1,53.2,218.1,53.5z" style="stroke-dasharray: 118.097, 118.097; stroke-dashoffset: 1.26477px;"></path>
<path d="M265.5,52c-0.3,0.1-0.5,0.2-0.7,0.3c-0.2,0.1-0.4,0.2-0.7,0.3c-0.3,0.1-0.6,0.3-0.9,0.4c-0.3,0.1-0.7,0.2-1.2,0.4
	c-0.5,0.1-1,0.3-1.5,0.4c-0.5,0.1-1.2,0.3-1.9,0.5c-0.7,0.2-1.4,0.3-2,0.5c-0.6,0.1-1.3,0.3-2.1,0.5c-0.7,0.2-1.4,0.4-2,0.5
	c-0.6,0.1-1.2,0.3-1.9,0.5c-0.4,0.1-0.7,0.2-1,0.3c0,0,0,0,0,0c0.2,0.4,0.3,0.8,0.5,1.2c0.1,0.4,0.3,0.8,0.4,1.2
	c0.1,0.4,0.2,0.9,0.2,1.3c0.1,0.4,0.1,0.9,0.1,1.3c0,0.5,0,0.9,0,1.3c-0.1,0.4-0.2,0.8-0.3,1.2c-0.2,0.4-0.4,0.8-0.6,1.1
	c-0.2,0.3-0.5,0.7-0.8,1c-0.3,0.3-0.6,0.6-1,0.8c-0.4,0.2-0.7,0.4-1.2,0.6c-0.4,0.1-0.8,0.2-1.3,0.2c-0.4,0-0.9,0-1.3-0.1
	c-0.4-0.1-0.8-0.1-1.2-0.3c-0.4-0.1-0.7-0.3-1.1-0.4c-0.3-0.2-0.7-0.4-1-0.6c-0.3-0.2-0.6-0.5-0.9-0.8c-0.3-0.3-0.5-0.6-0.7-1
	c-0.2-0.4-0.3-0.8-0.3-1.2c0-0.4,0-0.8,0.1-1.2c0.1-0.4,0.2-0.8,0.4-1.2c0.2-0.4,0.5-0.8,0.9-1.2c0.4-0.4,0.8-0.8,1.4-1.3
	c0.6-0.4,1.2-0.8,1.9-1.2c0.7-0.4,1.4-0.7,2.2-1c0.4-0.2,0.9-0.3,1.2-0.5c-0.1-0.2-0.3-0.4-0.4-0.7c-0.2-0.3-0.4-0.6-0.7-0.9
	c-0.2-0.3-0.5-0.6-0.7-0.8c-0.2-0.2-0.4-0.5-0.7-0.7c-0.2-0.2-0.4-0.4-0.6-0.6c-0.2-0.2-0.3-0.4-0.5-0.6c-0.2-0.2-0.3-0.5-0.4-0.8
	c-0.1-0.3-0.1-0.6-0.1-0.9c0.1-0.3,0.1-0.6,0.3-0.8c0.1-0.3,0.3-0.5,0.5-0.7c0.2-0.2,0.5-0.3,0.7-0.5c0.3-0.1,0.5-0.3,0.8-0.4
	c0.3-0.1,0.6-0.2,0.8-0.3c0.3-0.1,0.5-0.2,0.8-0.2c0.3-0.1,0.5,0,0.7,0c0.2,0.1,0.5,0.1,0.8,0.2c0.3,0.1,0.6,0.2,0.7,0.4
	c0.2,0.2,0.3,0.4,0.3,0.6c0,0.2,0.1,0.3,0.2,0.5c0,0.9-0.3,1.1-1,0.6c0-0.2-0.1-0.3-0.2-0.3c-0.1,0-0.2,0-0.4-0.1
	c-0.1-0.1-0.2-0.1-0.2-0.1s-0.1,0-0.2,0.1c-0.1,0.1-0.3,0.1-0.4,0.1c-0.1,0-0.3,0.1-0.5,0.1c-0.2,0.1-0.4,0.1-0.7,0.2
	c-0.2,0.1-0.5,0.2-0.6,0.3c-0.2,0.1-0.3,0.2-0.4,0.3c-0.1,0.1-0.2,0.1-0.2,0.1c0,0,0,0,0,0.1c0,0,0.1,0.1,0.1,0.1
	c0,0.1,0.1,0.2,0.2,0.3c0.1,0.1,0.2,0.3,0.3,0.5c0.1,0.2,0.3,0.4,0.5,0.6c0.2,0.2,0.4,0.5,0.6,0.8c0.2,0.3,0.5,0.6,0.7,0.9
	c0.3,0.3,0.5,0.7,0.7,1c0.2,0.3,0.4,0.7,0.6,1c0.4-0.1,0.8-0.3,1.3-0.4c0.7-0.2,1.4-0.4,2-0.6c0.6-0.2,1.3-0.3,2-0.5
	c0.7-0.2,1.4-0.3,2.1-0.5c0.6-0.2,1.3-0.3,2-0.5c0.7-0.2,1.3-0.3,1.8-0.5c0.5-0.2,1-0.3,1.4-0.5c0.4-0.2,0.8-0.3,1.1-0.5
	c0.3-0.1,0.5-0.3,0.8-0.4c0.3-0.1,0.5-0.3,0.7-0.4c0.2-0.1,0.5-0.3,0.8-0.4C265.6,50.6,265.8,51.2,265.5,52z M249.1,61.7
	c0-0.4-0.1-0.8-0.1-1.1c0-0.4-0.1-0.8-0.2-1.1c-0.1-0.4-0.2-0.7-0.3-1.1c-0.1-0.3-0.2-0.7-0.4-1.1c0-0.1-0.1-0.1-0.1-0.2
	c-0.4,0.1-0.9,0.3-1.4,0.5c-0.8,0.3-1.4,0.6-2,1c-0.6,0.3-1.1,0.7-1.6,1.1c-0.5,0.4-0.8,0.8-1.1,1.1c-0.2,0.3-0.4,0.6-0.6,0.9
	c-0.1,0.3-0.2,0.6-0.2,0.8c0,0.3,0,0.5,0,0.7c0,0.2,0.1,0.4,0.1,0.6s0.2,0.4,0.4,0.6c0.2,0.2,0.4,0.4,0.6,0.6
	c0.2,0.2,0.5,0.3,0.7,0.5c0.3,0.1,0.5,0.3,0.8,0.4c0.3,0.1,0.6,0.2,0.9,0.2c0.3,0,0.6,0.1,0.9,0s0.6-0.1,0.8-0.2
	c0.3-0.1,0.5-0.2,0.8-0.4c0.2-0.2,0.5-0.3,0.7-0.6c0.2-0.2,0.4-0.5,0.6-0.7c0.2-0.3,0.3-0.5,0.4-0.8c0.1-0.3,0.2-0.6,0.2-0.8
	C249.1,62.5,249.1,62.1,249.1,61.7z" style="stroke-dasharray: 125.993, 125.993; stroke-dashoffset: 1.19123px;"></path>
<path d="M289.6,51.4c-0.1,0.3-0.3,0.6-0.6,0.8c-0.4,0.3-0.8,0.7-1.4,1.1c-0.6,0.4-1.3,0.9-2.1,1.4c-0.8,0.5-1.7,1.1-2.7,1.6
	c-1,0.6-2.1,1.2-3.3,1.8c-1.2,0.6-2.4,1.2-3.5,1.7c-1.1,0.5-2.2,1-3.3,1.5c-0.2,0.1-0.5,0.2-0.7,0.3c-0.2,0.5-0.5,1-0.8,1.5
	c-0.4,0.8-0.9,1.5-1.3,2.1c-0.4,0.6-0.8,1.1-1.2,1.5c0,0-0.1,0.1-0.1,0.1c0.1,0.7,0.1,1.4,0.2,2.2c0.2,2,0.4,4,0.6,6.1
	c0.2,2.1,0.3,4,0.5,5.6c0.2,1.6,0.3,3.3,0.4,5c0.1,1.7,0.2,3.4,0.3,5.1c0.1,1.7,0.1,3.3,0.1,4.8c0,1.5-0.1,2.9-0.3,4.2
	c-0.2,1.3-0.4,2.4-0.6,3.3c-0.2,0.9-0.5,1.8-0.8,2.4c-0.3,0.7-0.6,1.3-1,1.7c-0.4,0.5-0.9,0.8-1.5,1c-0.6,0.2-1.2,0.1-1.9-0.1
	c-0.6-0.2-1.3-0.6-1.9-1.2c-0.6-0.6-1.1-1.3-1.6-2.2c-0.5-0.9-0.9-1.9-1.3-3c-0.4-1.1-0.7-2.3-1-3.6c-0.3-1.3-0.5-2.6-0.7-4
	c-0.2-1.4-0.3-2.8-0.4-4.3c-0.1-1.5-0.1-3-0.1-4.5c0-1.5,0.1-3,0.1-4.5c0.1-1.5,0.2-3,0.5-4.7c0.2-1.7,0.5-3.3,0.7-5
	c0.3-1.7,0.6-3.4,1-5.1c0.4-1.7,0.7-3.4,1.1-4.8c0.4-1.5,0.7-2.8,1.1-4.1c0.3-1.2,0.7-2.4,1.1-3.5c0.4-1.1,0.7-2.1,1.1-3
	c0.1-0.2,0.2-0.4,0.3-0.6c-0.1-0.4-0.2-0.9-0.3-1.3c-0.2-0.8-0.4-1.5-0.5-2.2c-0.2-0.7-0.3-1.3-0.4-1.8c-0.1-0.5-0.3-1.1-0.4-1.7
	c-0.2-0.6-0.2-1-0.2-1.2c0.1-0.2,0.2-0.5,0.4-0.6c0.2-0.2,0.3-0.2,0.4-0.1c0.1,0.1,0.1,0.1,0.2,0.1c0,0,0.1,0,0.1,0
	c0.2,0.1,0.4,0.2,0.5,0.3c0.1,0.2,0.2,0.5,0.3,1.1c0.1,0.6,0.2,1.1,0.3,1.7c0.1,0.6,0.2,1.2,0.4,1.9c0.1,0.6,0.2,1.2,0.4,1.8
	c0.4-0.8,0.9-1.4,1.3-2c0.5-0.5,0.9-0.9,1.4-1.2s1-0.4,1.6-0.4c0.6,0.1,1.1,0.3,1.5,0.6c0.4,0.4,0.8,0.8,1.1,1.4
	c0.3,0.6,0.6,1.2,0.8,1.9c0.2,0.7,0.4,1.4,0.5,2.1c0.1,0.7,0.2,1.5,0.2,2.3c0,0.8-0.1,1.7-0.2,2.5c-0.1,0.9-0.3,1.8-0.6,2.7
	c-0.2,0.7-0.5,1.4-0.7,2c0.9-0.4,1.8-0.8,2.7-1.2c1.1-0.5,2.3-1,3.5-1.6c1.2-0.6,2.3-1.2,3.2-1.7c1-0.6,1.8-1.1,2.6-1.7
	c0.8-0.5,1.4-1,1.9-1.4c0.5-0.4,0.9-0.8,1.1-1.1c0.2-0.2,0.3-0.3,0.4-0.4c0.3,0,0.5-0.1,0.8,0C289.4,50.9,289.5,51.1,289.6,51.4z
	 M268.5,75.2c-0.2-2.1-0.4-4.1-0.6-6.1c0-0.5-0.1-1-0.2-1.5c0,0-0.1,0.1-0.1,0.1c-0.4,0.2-0.9,0.3-1.3,0.2c-0.5-0.1-0.8-0.4-1-0.8
	c-0.2-0.4-0.3-0.9-0.2-1.4c0.1-0.5,0.3-1,0.7-1.5c0.3-0.5,0.8-0.9,1.4-1.3c-0.2-1.7-0.4-3.2-0.6-4.3c-0.2-1.3-0.4-2.5-0.7-3.7
	c-0.2-1-0.4-1.9-0.6-2.7c-0.2,0.6-0.5,1.2-0.7,1.9c-0.4,1.1-0.7,2.2-1.1,3.4c-0.4,1.2-0.7,2.5-1.1,4c-0.4,1.5-0.8,3.1-1.1,4.8
	c-0.4,1.7-0.7,3.4-1,5.1c-0.3,1.7-0.5,3.3-0.7,5c-0.2,1.6-0.3,3.2-0.4,4.6c-0.1,1.5-0.1,2.9-0.1,4.4c0,1.5,0,3,0.1,4.4
	c0.1,1.4,0.2,2.8,0.4,4.2c0.2,1.4,0.4,2.7,0.7,3.9c0.3,1.2,0.6,2.4,1,3.4c0.4,1,0.8,1.9,1.2,2.7c0.4,0.8,0.9,1.3,1.4,1.8
	c0.5,0.4,0.9,0.7,1.3,0.8c0.4,0.1,0.7,0.2,1,0.1c0.3,0,0.5-0.2,0.8-0.5c0.3-0.3,0.5-0.7,0.8-1.3c0.3-0.6,0.6-1.3,0.8-2.2
	c0.3-0.9,0.5-1.9,0.7-3.2c0.2-1.2,0.3-2.6,0.3-4c0-1.5,0-3-0.1-4.7c-0.1-1.7-0.2-3.3-0.3-5c-0.1-1.7-0.3-3.3-0.4-5
	C268.8,79.2,268.7,77.3,268.5,75.2z M272.7,54.9c0.1-0.8,0.1-1.5,0.1-2.3c0-0.7-0.1-1.4-0.2-2.1c-0.1-0.7-0.3-1.3-0.5-1.9
	c-0.2-0.6-0.4-1.1-0.7-1.5c-0.3-0.4-0.6-0.7-0.8-0.9c-0.2-0.2-0.5-0.3-0.7-0.3c-0.2,0-0.5,0-0.7,0.2c-0.3,0.1-0.6,0.4-1,0.8
	c-0.4,0.4-0.8,1-1.3,1.7c-0.2,0.4-0.5,0.9-0.7,1.3c0.1,0.4,0.2,0.8,0.2,1.2c0.2,1.1,0.4,2.2,0.6,3.4c0.2,1.2,0.4,2.5,0.6,3.7
	c0.2,1,0.3,2.3,0.5,3.8c0.4-0.2,0.7-0.4,1.2-0.6c0.5-0.3,1.1-0.5,1.6-0.8c0.1-0.2,0.2-0.4,0.2-0.5c0.4-0.9,0.7-1.8,0.9-2.6
	C272.4,56.6,272.6,55.7,272.7,54.9z M266.9,66.1C266.9,66.1,267,66.1,266.9,66.1c0.2-0.1,0.4-0.2,0.6-0.4c0-0.4-0.1-0.7-0.1-1.1
	c-0.1,0.1-0.2,0.2-0.2,0.3c-0.2,0.3-0.3,0.6-0.3,0.8C266.9,66,266.9,66.1,266.9,66.1z M269.9,62.7c-0.6,0.3-1.1,0.7-1.5,1
	c0,0.3,0.1,0.7,0.1,1c0.1-0.1,0.2-0.2,0.3-0.4C269.2,64,269.6,63.4,269.9,62.7z" style="stroke-dasharray: 355.468, 355.468; stroke-dashoffset: 2.94235px;"></path>
<path d="M315.9,51.8c-0.2,0.3-0.6,0.6-1,0.9c-0.4,0.4-0.9,0.8-1.4,1.2c-0.6,0.4-1.2,1-2,1.5c-0.8,0.6-1.6,1.1-2.4,1.7
	c-0.9,0.5-1.8,1.1-2.8,1.6c-1,0.5-2,1-3,1.3c-1,0.4-2.1,0.7-3.4,0.9c-1.2,0.2-2.5,0.3-3.7,0.3s-2.3-0.2-3.4-0.4
	c-1.1-0.2-2-0.6-2.7-1s-1.2-0.9-1.7-1.5c-0.4-0.6-0.7-1.1-0.9-1.7c-0.2-0.6-0.3-1.1-0.3-1.7c0-0.5,0-1.1,0.1-1.5
	c0.1-0.5,0.2-0.9,0.4-1.4c0.2-0.5,0.4-0.9,0.7-1.4c0.3-0.5,0.7-1,1.2-1.6c0.5-0.6,1-1.1,1.6-1.6c0.6-0.5,1.1-0.9,1.6-1.3
	c0.5-0.4,1.1-0.7,1.5-0.8c0.5-0.1,0.9-0.2,1.3-0.2c0.4,0,0.8,0.1,1.2,0.3c0.4,0.2,0.7,0.5,0.9,0.9c0.2,0.4,0.3,0.8,0.3,1.2
	c0,0.4-0.1,0.7-0.2,1.1c-0.1,0.4-0.3,0.7-0.5,1c-0.2,0.3-0.5,0.6-0.7,0.9s-0.6,0.6-0.9,1c-0.3,0.3-0.7,0.7-1.2,1
	c-0.4,0.4-1,0.7-1.6,1.1c-0.6,0.4-1.2,0.7-1.8,0.9c-0.6,0.3-1.2,0.5-1.8,0.6c-0.1,0-0.2,0.1-0.3,0.1c0,0.3,0.1,0.6,0.1,0.9
	c0.1,0.4,0.3,0.8,0.6,1.2c0.3,0.4,0.7,0.8,1.2,1.2c0.5,0.3,1.2,0.7,2.2,0.9c1,0.3,2,0.4,3.1,0.5c1.1,0,2.2,0,3.4-0.3
	c1.2-0.2,2.2-0.5,3.2-0.8c0.9-0.4,1.9-0.8,2.8-1.3c1-0.5,1.9-1,2.7-1.5s1.6-1.1,2.3-1.6c0.7-0.6,1.4-1.1,1.8-1.5
	c0.5-0.5,0.9-0.9,1.2-1.2c0.3-0.4,0.6-0.7,0.7-0.9C315.4,50.6,315.8,51,315.9,51.8z M289.2,53.5c0.5-0.1,0.9-0.2,1.4-0.4
	c0.5-0.2,1-0.5,1.6-0.8c0.5-0.3,1-0.6,1.4-1c0.4-0.3,0.7-0.7,1-1c0.3-0.3,0.6-0.6,0.8-0.9c0.2-0.3,0.4-0.6,0.5-0.8
	c0.1-0.2,0.2-0.4,0.3-0.6c0.1-0.2,0.1-0.4,0.1-0.5c0-0.1,0-0.2,0-0.3c0-0.1-0.1-0.1-0.2-0.2c-0.1,0-0.2,0-0.5-0.1
	c-0.2,0-0.5,0-0.7,0c-0.2,0-0.6,0.2-1.1,0.5c-0.5,0.3-1,0.6-1.5,1c-0.5,0.4-1,0.9-1.4,1.4c-0.5,0.5-0.8,1-0.9,1.3
	c-0.2,0.4-0.3,0.8-0.5,1.2C289.3,52.9,289.2,53.2,289.2,53.5z" style="stroke-dasharray: 118.084, 118.084; stroke-dashoffset: 0.847574px;"></path>
<path d="M344.9,50.6L344.9,50.6c-0.1,0.3-0.1,0.7-0.2,1c-0.1,0.4-0.2,0.8-0.2,1.3c-0.1,0.5-0.2,1.1-0.3,1.6c-0.1,0.6-0.3,1.3-0.5,2
	c-0.2,0.7-0.5,1.5-0.9,2.3c-0.4,0.8-0.8,1.7-1.4,2.6c-0.6,0.9-1.2,1.8-2,2.8c-0.8,1-1.5,1.9-2.4,2.7c-0.8,0.8-1.7,1.6-2.6,2.2
	c-0.9,0.6-1.9,1-2.9,1.3c-0.5,0.1-1,0.2-1.5,0.2c-0.5,0-1.1-0.1-1.7-0.2c-1.1-0.2-2.2-0.6-3.3-1.2c-1-0.6-2-1.4-2.9-2.4
	c-0.9-1-1.7-2.2-2.4-3.4c-0.7-1.3-1.3-2.7-1.8-4.2c-0.6-1.5-1.1-3.2-1.5-4.8c-0.2-0.8-0.4-1.7-0.6-2.8l0,0l0,0c0-0.1,0-0.1,0-0.2
	l-0.1-0.2c-0.1-0.4-0.3-0.9-0.3-1.4l0-0.1l0,0c0-0.1,0-0.2,0-0.3c0-0.1,0-0.3-0.1-0.4c-0.3-1.9-0.5-3.8-0.5-5.6
	c-0.1-1.8-0.1-3.8,0-5.8c0.1-2,0.3-4,0.5-5.7c0.2-1.7,0.5-3.6,0.9-5.6c0.3-1.9,0.7-3.7,1-5.2c0.4-1.6,0.8-3.2,1.3-4.8
	c0.5-1.6,1-3.1,1.5-4.3c0.5-1.2,1-2.4,1.6-3.6c0.6-1.2,1.1-2.2,1.7-3c0.5-0.8,1.1-1.6,1.7-2.3c0.6-0.7,1.2-1.2,1.8-1.6
	c0.6-0.4,1.2-0.6,1.9-0.7c0.6-0.1,1.3,0,1.8,0.2c0.5,0.2,1.1,0.6,1.5,1.2c0.5,0.5,0.9,1.4,1.2,2.5c0.3,1.1,0.5,2.3,0.7,3.6
	c0.1,1.3,0.2,2.7,0.1,4.2c0,1.5-0.2,2.9-0.4,4.2c-0.3,1.3-0.6,2.6-0.9,4.1c-0.4,1.4-0.8,2.9-1.2,4.3c-0.4,1.4-0.9,2.8-1.5,4.2
	c-0.5,1.4-1.1,2.7-1.7,4c-0.6,1.3-1.2,2.6-1.9,3.8c-0.7,1.2-1.3,2.4-1.9,3.5c-0.6,1.1-1.3,2.1-1.9,3.1c-0.6,1-1.2,1.9-1.8,2.7
	c-0.6,0.8-1.2,1.6-1.9,2.4c-0.7,0.8-1.2,1.3-1.5,1.6c-0.1,0.1-0.2,0.2-0.4,0.4c0.2,1.4,0.5,2.4,0.7,3.4c0.4,1.6,0.9,3.2,1.5,4.7
	c0.6,1.5,1.2,2.9,1.8,4c0.6,1.2,1.4,2.2,2.2,3.2c0.8,0.9,1.7,1.6,2.6,2.1c0.9,0.5,1.9,0.8,2.9,1c1,0.2,1.9,0.2,2.7,0
	c0.8-0.2,1.6-0.6,2.5-1.1c0.8-0.5,1.7-1.2,2.4-2s1.5-1.6,2.3-2.6c0.7-0.9,1.4-1.8,1.9-2.7c0.5-0.8,0.9-1.7,1.2-2.4
	c0.3-0.8,0.6-1.5,0.8-2.2c0.2-0.7,0.3-1.3,0.4-1.9c0.1-0.6,0.2-1.1,0.2-1.6c0.1-0.5,0.1-0.9,0.1-1.3c0-0.4,0-0.7,0.1-0.9l0-0.1l0,0
	c0.3-0.3,0.6-0.4,0.9-0.4C344.3,50.1,344.6,50.3,344.9,50.6L344.9,50.6z M323.1,39.9c0.6-1.1,1.3-2.2,1.9-3.4
	c0.7-1.2,1.3-2.5,1.9-3.7c0.6-1.3,1.2-2.6,1.7-4c0.5-1.3,1-2.7,1.5-4.1c0.4-1.4,0.8-2.8,1.2-4.2c0.3-1.4,0.6-2.7,0.9-4
	c0.2-1.2,0.4-2.6,0.4-4c0.1-1.5,0-2.8-0.1-4c-0.1-1.2-0.4-2.3-0.7-3.3c-0.3-1-0.6-1.6-0.9-1.9c-0.3-0.3-0.7-0.5-1.1-0.7
	c-0.3-0.1-0.6-0.2-0.9-0.2c-0.1,0-0.2,0-0.2,0c-0.4,0-0.8,0.2-1.2,0.5c-0.4,0.3-1,0.7-1.5,1.3c-0.5,0.6-1.1,1.3-1.6,2
	c-0.5,0.8-1.1,1.7-1.6,2.8c-0.6,1.1-1.1,2.3-1.6,3.5c-0.5,1.2-1,2.6-1.5,4.2c-0.5,1.6-0.9,3.2-1.3,4.7c-0.3,1.5-0.7,3.3-1.1,5.2
	c-0.4,1.9-0.6,3.8-0.9,5.5c-0.2,1.7-0.4,3.6-0.5,5.6c-0.1,2-0.1,3.9,0,5.7c0.1,1.8,0.3,3.6,0.5,5.4c0.3-0.3,0.6-0.6,1.1-1.1
	c0.7-0.7,1.3-1.4,1.9-2.2c0.6-0.8,1.2-1.6,1.8-2.6C321.8,42,322.4,41,323.1,39.9z" style="stroke-dasharray: 318.087, 318.087; stroke-dashoffset: 1.95809px;"></path>
<path d="M371.2,51.8c-0.2,0.3-0.6,0.6-1,0.9c-0.4,0.4-0.9,0.8-1.4,1.2c-0.6,0.4-1.2,1-2,1.5c-0.8,0.6-1.6,1.1-2.4,1.7
	c-0.9,0.5-1.8,1.1-2.8,1.6c-1,0.5-2,1-3,1.3c-1,0.4-2.1,0.7-3.4,0.9c-1.2,0.2-2.5,0.3-3.7,0.3s-2.3-0.2-3.4-0.4
	c-1.1-0.2-2-0.6-2.7-1c-0.7-0.4-1.2-0.9-1.7-1.5c-0.4-0.6-0.7-1.1-0.9-1.7c-0.2-0.6-0.3-1.1-0.3-1.7c0-0.5,0-1.1,0.1-1.5
	c0.1-0.5,0.2-0.9,0.4-1.4c0.2-0.5,0.4-0.9,0.7-1.4c0.3-0.5,0.7-1,1.2-1.6c0.5-0.6,1-1.1,1.6-1.6c0.6-0.5,1.1-0.9,1.6-1.3
	c0.5-0.4,1.1-0.7,1.5-0.8c0.5-0.1,0.9-0.2,1.3-0.2c0.4,0,0.8,0.1,1.2,0.3c0.4,0.2,0.7,0.5,0.9,0.9c0.2,0.4,0.3,0.8,0.3,1.2
	c0,0.4-0.1,0.7-0.2,1.1c-0.1,0.4-0.3,0.7-0.5,1c-0.2,0.3-0.5,0.6-0.7,0.9s-0.6,0.6-0.9,1c-0.3,0.3-0.7,0.7-1.2,1
	c-0.4,0.4-1,0.7-1.6,1.1c-0.6,0.4-1.2,0.7-1.8,0.9c-0.6,0.3-1.2,0.5-1.8,0.6c-0.1,0-0.2,0.1-0.3,0.1c0,0.3,0.1,0.6,0.1,0.9
	c0.1,0.4,0.3,0.8,0.6,1.2c0.3,0.4,0.7,0.8,1.2,1.2c0.5,0.3,1.2,0.7,2.2,0.9c1,0.3,2,0.4,3.1,0.5c1.1,0,2.2,0,3.4-0.3
	c1.2-0.2,2.2-0.5,3.2-0.8c0.9-0.4,1.9-0.8,2.8-1.3c1-0.5,1.9-1,2.7-1.5c0.8-0.5,1.6-1.1,2.3-1.6c0.7-0.6,1.4-1.1,1.8-1.5
	c0.5-0.5,0.9-0.9,1.2-1.2c0.3-0.4,0.6-0.7,0.7-0.9C370.7,50.6,371.1,51,371.2,51.8z M344.5,53.5c0.5-0.1,0.9-0.2,1.4-0.4
	c0.5-0.2,1-0.5,1.6-0.8c0.5-0.3,1-0.6,1.4-1c0.4-0.3,0.7-0.7,1-1c0.3-0.3,0.6-0.6,0.8-0.9c0.2-0.3,0.4-0.6,0.5-0.8
	c0.1-0.2,0.2-0.4,0.3-0.6c0.1-0.2,0.1-0.4,0.1-0.5c0-0.1,0-0.2,0-0.3c0-0.1-0.1-0.1-0.2-0.2c-0.1,0-0.2,0-0.5-0.1
	c-0.2,0-0.5,0-0.7,0c-0.2,0-0.6,0.2-1.1,0.5c-0.5,0.3-1,0.6-1.5,1c-0.5,0.4-1,0.9-1.4,1.4c-0.5,0.5-0.8,1-0.9,1.3
	c-0.2,0.4-0.3,0.8-0.5,1.2C344.6,52.9,344.5,53.2,344.5,53.5z" style="stroke-dasharray: 118.084, 118.084; stroke-dashoffset: 0.615449px;"></path>
<path d="M413,15.9c0,0.4-0.1,0.8-0.3,1.2c-0.2,0.4-0.5,0.8-0.8,1.2c-0.3,0.4-0.8,0.8-1.4,1.3c-0.6,0.4-1.4,0.9-2.3,1.3
	c-0.9,0.4-2,0.8-3.1,1.2c-1.1,0.3-2.5,0.7-4,1c-1.5,0.3-3,0.5-4.5,0.7c-1.5,0.2-3.1,0.3-4.8,0.4c-1.7,0.1-3.4,0.1-5,0
	c-1.6-0.1-3.4-0.3-5.2-0.5c-1.9-0.3-3.5-0.6-5-0.9c-0.5-0.1-1.1-0.2-1.6-0.4l-0.6-0.1c-0.2,1.4-0.4,2.7-0.6,4.1
	c-0.2,1.6-0.5,3.3-0.8,5.1c-0.3,1.7-0.5,3.5-0.8,5.3c-0.2,1.7-0.5,3.4-0.7,5.2c-0.2,1.7-0.3,3.5-0.4,5.2c-0.1,1.7-0.1,3.4,0,4.9
	c0.1,1.5,0.3,3,0.5,4.5c0.3,1.4,0.6,2.7,1,3.9c0.4,1.1,0.8,2.1,1.3,3c0.4,0.9,0.9,1.7,1.4,2.3c0.5,0.6,1.1,1.1,1.7,1.5
	c0.6,0.4,1.3,0.6,2,0.7c0.7,0.1,1.5,0.1,2.2-0.1c0.7-0.1,1.4-0.4,2-0.7c0.6-0.3,1.3-0.8,1.9-1.2c0.6-0.5,1.2-1,1.7-1.7
	c0.5-0.6,1.1-1.4,1.7-2.2c0.6-0.9,1-1.7,1.4-2.4c0.4-0.8,0.8-1.5,1.1-2.3c0.3-0.7,0.6-1.4,0.8-2.1c0.2-0.6,0.4-1.3,0.6-1.9
	c0.2-0.6,0.3-1.1,0.4-1.5c0.1-0.4,0.1-0.8,0.1-1l0-0.1l0.1-0.1c0.3-0.3,0.6-0.4,0.9-0.4c0.3,0,0.6,0.3,0.8,0.7l0,0.1l0,0.1
	c-0.1,0.3-0.2,0.7-0.3,1.2c-0.1,0.5-0.3,1-0.5,1.7c-0.2,0.6-0.4,1.3-0.7,2c-0.2,0.7-0.6,1.4-0.9,2.2c-0.4,0.8-0.8,1.6-1.2,2.4
	c-0.4,0.8-1,1.7-1.5,2.5c-0.6,0.9-1.2,1.7-1.8,2.4c-0.6,0.7-1.3,1.3-1.9,1.9c-0.7,0.5-1.4,1-2.1,1.4c-0.7,0.4-1.5,0.7-2.4,0.8
	c-0.5,0.1-1,0.2-1.5,0.2c-0.3,0-0.6,0-0.9-0.1c-0.1,0-0.1,0-0.2,0c-0.9-0.1-1.7-0.4-2.5-0.9c-0.8-0.4-1.5-1.1-2-1.8
	c-0.6-0.8-1.1-1.6-1.6-2.6c-0.5-1-0.9-2.1-1.3-3.3c-0.4-1.2-0.7-2.6-1-4.1c-0.3-1.5-0.5-3.1-0.6-4.7c-0.1-1.6-0.1-3.3,0-5.1
	c0.1-1.8,0.2-3.6,0.4-5.3c0.2-1.7,0.4-3.5,0.7-5.2c0.3-1.7,0.5-3.5,0.8-5.3c0.3-1.8,0.5-3.5,0.8-5.1c0.2-1.4,0.4-2.8,0.6-4.2
	l-0.4-0.1c-0.2,0-0.4-0.1-0.7-0.2c-1.5-0.4-2.8-0.6-4-0.9c-1.1-0.2-2.3-0.4-3.6-0.6c-1.2-0.2-2.3-0.2-3.2-0.2
	c-0.9,0-1.8,0.1-2.7,0.3c-0.9,0.2-1.7,0.5-2.5,0.9c-0.8,0.4-1.6,0.9-2.3,1.4c-0.7,0.5-1.2,1.1-1.7,1.6c-0.4,0.6-0.7,1-0.8,1.4
	c-0.1,0.4-0.2,0.7-0.3,0.8c0,0.1,0,0.2,0.1,0.3l0,0l0,0.1c-0.1,0.4-0.3,0.7-0.6,0.7c-0.3,0.1-0.6-0.1-0.9-0.5l0,0
	c0-0.2-0.1-0.4,0-0.8c0-0.4,0.2-0.8,0.4-1.4c0.2-0.6,0.6-1.2,1.2-1.8c0.6-0.7,1.2-1.3,2-1.8c0.8-0.6,1.6-1.1,2.5-1.5
	c0.9-0.4,1.9-0.8,2.8-1c0.9-0.2,1.9-0.3,2.9-0.3c1,0,2.1,0.1,3.4,0.3c1.2,0.2,2.5,0.4,3.6,0.6c1.2,0.2,2.5,0.5,4,0.9
	c0.2,0.1,0.4,0.1,0.6,0.1c0.1,0,0.2,0.1,0.4,0.1c0.2-1.5,0.4-2.8,0.6-3.9c0.2-1.3,0.4-2.6,0.6-3.8c0.2-1.2,0.4-2.3,0.5-3.2
	c0.2-1,0.3-1.9,0.4-2.7c0.1-0.8,0.2-1.6,0.3-2.3c0.1-0.7,0.1-1.2,0.2-1.5c0-0.3,0.1-0.6,0.1-0.8l0-0.1l0-0.1c0.3-0.5,0.6-0.7,1-0.6
	c0.3,0,0.6,0.3,0.8,0.9l0,0.1l0,0.1c-0.1,0.2-0.1,0.5-0.2,0.8c0,0.3-0.1,0.8-0.2,1.5c-0.1,0.6-0.2,1.3-0.4,2.1l0,0.2
	c-0.1,0.9-0.3,1.8-0.5,2.8c-0.2,1-0.4,2.1-0.6,3.2c-0.2,1.2-0.5,2.5-0.7,3.7c-0.2,1.1-0.4,2.5-0.7,4c0.2,0.1,0.4,0.1,0.7,0.2
	c0.5,0.1,1,0.3,1.6,0.4c1.5,0.3,3.1,0.6,5,0.9c1.8,0.3,3.5,0.5,5.1,0.5c1.6,0.1,3.2,0,4.9,0c1.7-0.1,3.3-0.2,4.7-0.4
	c1.5-0.2,3-0.4,4.4-0.7c1.5-0.3,2.8-0.6,3.9-1c1.1-0.4,2.1-0.8,2.9-1.2c0.9-0.4,1.5-0.9,2-1.3c0.5-0.4,0.8-0.8,1-1.1
	c0.2-0.4,0.4-0.6,0.4-0.7c0-0.1,0.1-0.3,0-0.5l0,0l0,0c0.2-0.3,0.5-0.5,0.8-0.5C412.4,15.4,412.7,15.5,413,15.9L413,15.9L413,15.9z" style="stroke-dasharray: 331.935, 331.935; stroke-dashoffset: 1.44265px;"></path>
<path d="M500.2,52c0,0.3-0.2,0.6-0.4,0.9c-0.2,0.3-0.5,0.7-0.8,1.1c-0.3,0.5-0.8,0.9-1.4,1.4c-0.6,0.4-1.2,0.8-1.8,1.1
	c-0.6,0.3-1.3,0.6-2,0.8c-0.7,0.3-1.4,0.5-2,0.6c-0.6,0.2-1.3,0.3-2,0.4c-0.7,0.1-1.5,0.1-2.4,0.2c-0.9,0-1.9,0-3,0
	c-1.1,0-2.4-0.1-3.6-0.2c-1.2-0.1-2.5-0.2-3.9-0.3c-1.3-0.1-2.7-0.3-4.2-0.5c-1.4-0.2-3-0.4-4.6-0.6c-1.6-0.2-3.2-0.4-4.8-0.5
	c-1.6-0.2-3.3-0.3-5.1-0.4c-1.8-0.1-3.7-0.2-5.6-0.3c-1.9-0.1-3.9-0.1-5.9-0.2c-2,0-4,0-5.8,0c-1.9,0.1-3.7,0.2-5.5,0.3
	c-1.8,0.1-3.4,0.3-4.9,0.5c-1.5,0.2-2.9,0.4-4.3,0.7c-1.4,0.3-2.6,0.6-3.8,0.9c-0.8,0.2-1.5,0.5-2.3,0.8c-0.4,0.2-0.8,0.3-1.2,0.5
	c-0.3,0.1-0.7,0.3-1,0.4c0,0,0,0,0,0c-1.1,0.4-2.3,0.7-3.5,0.9c-1.2,0.2-2.2,0.3-3.2,0.3c-0.9,0-1.8-0.1-2.7-0.2s-1.6-0.4-2.2-0.8
	c-0.6-0.4-1.2-0.8-1.6-1.4s-0.8-1.2-1-2c-0.2-0.7-0.3-1.4-0.3-2.1c-0.2,0.3-0.5,0.6-0.8,0.9c-0.5,0.6-1.1,1.2-1.7,1.7
	c-0.6,0.5-1.2,1-1.9,1.4c-0.6,0.4-1.3,0.7-1.8,0.8c-0.6,0.1-1.1,0.1-1.7,0c-0.5-0.1-1-0.3-1.5-0.6c-0.5-0.3-0.8-0.7-1.1-1.2
	s-0.5-1-0.6-1.6s-0.1-1.2-0.1-1.8c0.1-0.6,0.2-1.3,0.4-1.9c0.2-0.6,0.5-1.3,0.8-1.9c0.3-0.6,0.7-1.1,1.2-1.6s0.9-0.9,1.4-1.3
	c0.5-0.4,1-0.7,1.6-1c0.6-0.3,1.1-0.5,1.7-0.7c0.5-0.2,1.1-0.3,1.6-0.4c0.5-0.1,1-0.1,1.4-0.1c0.4,0,0.8,0,1.1,0.1
	c0.3,0.1,0.6,0.2,0.9,0.3c0.2,0.1,0.5,0.3,0.7,0.6c0.2,0.2,0.4,0.5,0.4,0.7c0.1,0.3,0.1,0.5,0.1,0.6c0,0,0,0,0,0
	c0.2,0.1,0.3,0.2,0.4,0.4c0.1,0.3,0.2,0.6,0.1,0.9c0,0,0,0,0,0.1c0,0.1,0,0.2,0,0.3c0.1,0.5-0.2,1-0.3,1.5c-0.1,0.3-0.1,0.6-0.1,0.9
	c-0.2,0.3-0.4,0.7-0.5,1.1c-0.2,0.6-0.3,1.2-0.3,1.8c0,0.6,0.1,1.2,0.2,1.8c0.2,0.6,0.4,1.1,0.8,1.5c0.4,0.4,0.8,0.8,1.2,1
	c0.5,0.3,1.1,0.5,1.8,0.7c0.7,0.2,1.5,0.2,2.4,0.3c0.8,0,1.8-0.1,3-0.3c1.1-0.2,2.2-0.4,3.3-0.8c0.1,0,0.2-0.1,0.2-0.1
	c1-0.3,2.1-0.7,3.1-1.2c0.1,0,0.2-0.1,0.3-0.1c0.3-0.1,0.6-0.2,0.8-0.3c1.2-0.3,2.5-0.7,3.9-0.9c0.2,0,0.4-0.1,0.6-0.1
	c1.2-0.2,2.5-0.4,3.9-0.6c1.5-0.2,3.2-0.3,5-0.5c1.8-0.1,3.7-0.2,5.5-0.3c1.9-0.1,3.9-0.1,5.9,0c2,0,4,0.1,5.9,0.2
	c1.9,0.1,3.8,0.2,5.6,0.3c1.8,0.1,3.5,0.3,5.1,0.4c1.6,0.2,3.2,0.3,4.8,0.5c1.5,0.2,3.1,0.3,4.6,0.5c1.4,0.2,2.8,0.3,4.2,0.5
	c1.3,0.1,2.6,0.2,3.8,0.3c1.2,0.1,2.4,0.1,3.5,0.1c1.1,0,2.1,0,3-0.1c0.8-0.1,1.6-0.1,2.2-0.2c0.7-0.1,1.3-0.2,1.8-0.3
	c0.5-0.1,1.2-0.3,1.8-0.6c0.7-0.3,1.3-0.5,1.8-0.8c0.5-0.2,1-0.6,1.5-1c0.5-0.4,0.9-0.7,1.1-1.1c0.3-0.4,0.5-0.7,0.7-1
	c0.1-0.2,0.2-0.3,0.2-0.5l0-0.2l0.1-0.1c0.2-0.2,0.4-0.3,0.7-0.3c0.1,0,0.1,0,0.2,0C499.8,51.1,500,51.4,500.2,52L500.2,52L500.2,52
	z M404,47.6C404,47.6,404,47.6,404,47.6c-0.1-0.1-0.2-0.2-0.3-0.2c-0.1,0-0.2-0.1-0.3-0.1c-0.1-0.1-0.3-0.1-0.5-0.2
	c-0.2-0.1-0.4-0.1-0.7-0.1c-0.3,0-0.6,0-1,0c-0.4,0-0.8,0.1-1.3,0.3c-0.5,0.1-1,0.3-1.4,0.6c-0.5,0.2-0.9,0.5-1.4,0.8
	c-0.4,0.3-0.8,0.7-1.2,1.1s-0.7,0.9-1,1.4c-0.3,0.5-0.5,1-0.7,1.6c-0.2,0.5-0.3,1.1-0.3,1.6c0,0.5,0,1,0.1,1.4
	c0.1,0.4,0.2,0.8,0.4,1.1c0.2,0.3,0.4,0.5,0.6,0.6c0.2,0.2,0.5,0.3,0.9,0.3c0.3,0.1,0.7,0.1,1,0c0.4-0.1,0.8-0.2,1.4-0.5
	c0.6-0.3,1.1-0.7,1.7-1.2c0.5-0.5,1.1-1,1.6-1.5c0.5-0.5,0.9-1,1.1-1.5c0.2-0.4,0.5-0.9,0.7-1.3c0.2-0.4,0.4-0.9,0.5-1.2
	c0,0,0,0,0,0c0-0.5,0-0.9,0.1-1.3C403.9,48.5,404,48,404,47.6C404,47.7,404,47.6,404,47.6z" style="stroke-dasharray: 281.911, 281.911; stroke-dashoffset: 1.00324px;"></path>
</svg>